<?xml version="1.0" encoding="UTF-8" standalone="no"?>
<!-- Created with Inkscape (http://www.inkscape.org/) -->

<svg
   xmlns:dc="http://purl.org/dc/elements/1.1/"
   xmlns:cc="http://creativecommons.org/ns#"
   xmlns:rdf="http://www.w3.org/1999/02/22-rdf-syntax-ns#"
   xmlns:svg="http://www.w3.org/2000/svg"
   xmlns="http://www.w3.org/2000/svg"
   xmlns:sodipodi="http://sodipodi.sourceforge.net/DTD/sodipodi-0.dtd"
   xmlns:inkscape="http://www.inkscape.org/namespaces/inkscape"
   id="svg3039"
   version="1.1"
   inkscape:version="0.48.4 r9939"
   width="897.5"
   height="286.8375"
   xml:space="preserve"
   sodipodi:docname="travis-ci.eps"><metadata
     id="metadata3045"><rdf:RDF><cc:Work
         rdf:about=""><dc:format>image/svg+xml</dc:format><dc:type
           rdf:resource="http://purl.org/dc/dcmitype/StillImage" /><dc:title></dc:title></cc:Work></rdf:RDF></metadata><defs
     id="defs3043" /><sodipodi:namedview
     pagecolor="#ffffff"
     bordercolor="#666666"
     borderopacity="1"
     objecttolerance="10"
     gridtolerance="10"
     guidetolerance="10"
     inkscape:pageopacity="0"
     inkscape:pageshadow="2"
     inkscape:window-width="1280"
     inkscape:window-height="948"
     id="namedview3041"
     showgrid="false"
     inkscape:zoom="0.87846692"
     inkscape:cx="390.4366"
     inkscape:cy="86.047234"
     inkscape:window-x="0"
     inkscape:window-y="24"
     inkscape:window-maximized="1"
     inkscape:current-layer="g3047" /><g
     id="g3047"
     inkscape:groupmode="layer"
     inkscape:label="ink_ext_XXXXXX"
     transform="matrix(1.25,0,0,-1.25,0,286.8375)"><g
       id="g3049"
       transform="scale(0.1,0.1)"><path
         d="m 2836.34,1316.46 -265.43,0 0,137.62 692.49,0 0,-137.63 -264.09,0 0,-780.95 -162.97,0 0,780.96"
         style="fill:#2a2c30;fill-opacity:1;fill-rule:nonzero;stroke:none"
         id="path3051" /><path
         d="m 3248.78,1225.14 133.44,0 11.19,-122.16 5.67,0 c 49.16,89.88 122.21,139.03 195.24,139.03 35.07,0 57.56,-4.2 78.64,-14.08 l -28.1,-140.43 c -23.86,7.03 -42.15,11.25 -71.63,11.25 -54.76,0 -120.79,-37.93 -162.95,-141.852 l 0,-421.398 -161.51,0 0,689.64 0.01,0"
         style="fill:#2a2c30;fill-opacity:1;fill-rule:nonzero;stroke:none"
         id="path3053" /><path
         d="m 3963.73,645.07 c 56.16,0 99.72,28.078 150.27,75.86 l 0,154.5 c -186.79,-23.899 -248.59,-73.059 -248.59,-141.891 0,-61.789 40.66,-88.469 98.32,-88.469 z M 4114,976.539 c -1.42,73.051 -32.31,134.821 -125.01,134.821 -68.83,0 -133.47,-30.88 -193.81,-67.39 l -59.02,108.17 c 75.84,47.71 172.77,89.87 282.32,89.87 172.75,0 257.03,-105.36 257.03,-297.791 l 0,-408.719 -132.04,0 -12.59,75.859 -4.26,0 c -61.8,-51.98 -132.04,-92.691 -213.48,-92.691 -120.8,0 -205.12,81.422 -205.12,202.262 0.03,147.449 123.68,224.718 405.98,255.609"
         style="fill:#2a2c30;fill-opacity:1;fill-rule:nonzero;stroke:none"
         id="path3055" /><path
         d="m 4321.77,1225.14 164.34,0 109.54,-358.16 c 18.27,-67.39 39.35,-137.628 57.58,-207.859 l 5.65,0 c 19.6,70.231 39.32,140.469 58.95,207.859 l 109.58,358.16 155.9,0 -234.54,-689.64 -186.82,0 -240.18,689.64"
         style="fill:#2a2c30;fill-opacity:1;fill-rule:nonzero;stroke:none"
         id="path3057" /><path
         d="m 5062.11,1225.14 161.56,0 0,-689.64 -161.56,0 0,689.64 z m -18.27,212.11 c 0,54.77 42.16,92.72 99.71,92.72 57.65,0 99.73,-37.96 99.73,-92.72 0,-53.35 -42.08,-91.32 -99.73,-91.32 -57.55,-0.01 -99.71,37.96 -99.71,91.32"
         style="fill:#2a2c30;fill-opacity:1;fill-rule:nonzero;stroke:none"
         id="path3059" /><path
         d="m 5392.06,718.102 c 61.76,-47.75 120.8,-77.282 191.04,-77.282 74.43,0 109.51,35.11 109.51,82.871 0,57.598 -74.43,82.879 -147.47,110.969 -91.33,33.719 -193.84,85.668 -193.84,200.82 0,120.84 96.91,206.52 251.4,206.52 95.51,0 172.79,-39.28 228.98,-82.88 l -74.42,-98.32 c -47.76,35.11 -96.91,58.99 -151.69,58.99 -68.84,0 -101.19,-32.31 -101.19,-75.84 0,-53.348 68.84,-75.872 143.28,-102.552 94.11,-35.078 198.03,-80.039 198.03,-209.269 0,-117.969 -94.07,-213.481 -268.22,-213.481 -94.12,0 -193.85,40.704 -261.24,95.512 l 75.83,103.942"
         style="fill:#2a2c30;fill-opacity:1;fill-rule:nonzero;stroke:none"
         id="path3061" /><path
         d="m 6637.93,1470.93 c 112.35,0 203.63,-54.77 261.24,-116.56 l -89.88,-101.08 c -47.75,46.28 -99.72,75.79 -169.95,75.79 -150.28,0 -258.44,-126.35 -258.44,-332.869 0,-209.281 99.69,-335.731 252.79,-335.731 81.47,0 141.88,33.75 193.83,91.329 l 89.87,-99.7 c -74.42,-85.73 -169.94,-133.441 -286.5,-133.441 -233.14,0 -417.15,168.551 -417.15,473.301 0,300.611 188.19,478.961 424.19,478.961"
         style="fill:#2a2c30;fill-opacity:1;fill-rule:nonzero;stroke:none"
         id="path3063" /><path
         d="m 7017.04,535.5 162.961,0 0,918.578 -162.961,0 0,-918.578 z"
         style="fill:#2a2c30;fill-opacity:1;fill-rule:nonzero;stroke:none"
         id="path3065" /><path
         d="m 1350.91,181.75 c -12.32,-1.84 -24.65,-3.352 -36.83,-4.32 -7.93,-0.379 -16.25,-1.18 -23.83,-1.18 l -2.83,-0.07 c 9.51,21.211 16.75,37.679 22.19,50.16 11.15,-12.481 25.32,-27.91 41.3,-44.59"
         style="fill:#e5c69e;fill-opacity:1;fill-rule:nonzero;stroke:none"
         id="path3067" /><path
         d="m 1335.96,1129.93 c -19.27,-15.66 -39.57,-30.21 -60.71,-42.99 l -70.53,-42.54 c -44.22,-5.4 -82.6,-16.33 -84.79,-16.99 -1.29,-0.28 -2.51,-0.89 -3.65,-1.57 -3.43,-2 -6.04,-5.32 -7.29,-9.22 L 1037.17,780 653.313,694.629 532.367,779.301 497.203,1064.22 c 68.688,12.62 160.508,27.18 270.785,39.57 -11.789,-14.13 -23.258,-28.97 -34.172,-44.57 l -65.648,-94.24 95.621,63.73 c 1.441,0.99 62.289,41.05 161.891,89.78 99.26,7.42 208.84,12.24 326.06,12.24 28.64,0 56.68,-0.34 84.22,-0.8 z m -597.499,-321 c 27.293,14.75 58.086,12.582 106.34,12.468 5.14,-0.089 10.488,-0.039 16.027,0.114 4.774,0 9.524,0.09 14.57,0.218 49.723,0.508 91.024,-4.191 90.27,73.79 -0.734,78.011 -35.41,141.1 -85.086,140.61 -49.676,-0.45 -97.75,-64.38 -94.781,-142.341 0.793,-20.301 3.801,-34.969 8.57,-45.488 -43.293,-10.903 -55.269,-37.692 -55.91,-39.371"
         style="fill:#ae9c82;fill-opacity:1;fill-rule:nonzero;stroke:none"
         id="path3069" /><path
         d="m 2001.28,1065.16 -34.57,-242.269 -121.93,-85.371 -383.36,43.558 -71.52,235.542 c -1.63,5.25 -5.69,9.28 -10.96,10.8 -2.35,0.7 -49.81,14.28 -100.12,18.62 l 9.2,0.62 c 7.93,0.58 140.15,16.77 298.05,71.19 174.82,-13.42 317.63,-34.87 415.21,-52.69 z M 1756.34,840.91 c -0.5,1.891 -11.02,33.231 -57.17,27.731 5.3,11.589 7.69,27.238 6,48.73 -6.08,77.84 -51.41,139.719 -101.04,137.969 -49.68,-1.73 -81.46,-66.262 -78.7,-144.371 2.73,-77.93 44.38,-77.391 94.05,-75.598 66.72,1.25 103.35,21.738 136.86,5.539"
         style="fill:#ae9c82;fill-opacity:1;fill-rule:nonzero;stroke:none"
         id="path3071" /><path
         d="m 1625.18,981.059 c 0.24,-14.008 -10.89,-25.559 -24.9,-25.84 -14.01,-0.239 -25.62,10.949 -25.81,24.922 -0.29,14.019 10.86,25.599 24.86,25.839 14.07,0.31 25.65,-10.91 25.85,-24.921"
         style="fill:#ffffff;fill-opacity:1;fill-rule:nonzero;stroke:none"
         id="path3073" /><path
         d="m 913.617,962.398 c 0.352,-13.968 -10.695,-25.648 -24.668,-26.007 -14.07,-0.403 -25.75,10.64 -26.136,24.711 -0.352,13.968 10.679,25.707 24.753,26.007 13.954,0.391 25.664,-10.648 26.051,-24.711"
         style="fill:#ffffff;fill-opacity:1;fill-rule:nonzero;stroke:none"
         id="path3075" /><path
         d="m 2168.61,958.578 c -5.99,4.953 -26.01,16.402 -45.52,26.942 l -32.13,-225.192 c -0.65,-4.297 -3.09,-8.297 -6.74,-10.879 l -45.97,-32.16 c -1.09,-5.437 -1.94,-9.98 -2.76,-14.23 45.17,-11.118 89.04,21.472 113.67,44.941 11.38,44.391 21.32,97.059 24.74,134.75 5.25,58.461 0.61,70.98 -5.29,75.828"
         style="fill:#e5c69e;fill-opacity:1;fill-rule:nonzero;stroke:none"
         id="path3077" /><path
         d="m 1458.63,103.02 c -29.83,10.621 -57.17,27.91 -80.97,51.449 -1.98,2.011 -3.87,3.961 -5.86,5.941 -18.42,-3.769 -37.23,-6.48 -56.4,-8.109 -8.07,-0.352 -15.79,-1.051 -24.22,-1.051 l -12.47,-0.102 -4.81,0.102 c -28.5,-42.34 -76.43,-65.6094 -113.98,-77.9883 111.56,-19.1406 234.31,10.1367 298.71,29.7583"
         style="fill:#e5c69e;fill-opacity:1;fill-rule:nonzero;stroke:none"
         id="path3079" /><path
         d="m 476.547,654.551 c -0.996,3.398 -2.043,6.758 -3.016,10.168 l -59.722,41.801 c -3.75,2.66 -6.129,6.679 -6.731,11.23 l -29.117,236.48 c -21.551,-11.5 -46.461,-25.699 -53.094,-31.25 -5.758,-4.75 -10.156,-16.878 -3.929,-73.23 4.73,-42.352 19.613,-107.441 34.816,-156.211 l 0,0 c 30.238,-23.129 74.777,-47.508 120.793,-38.988"
         style="fill:#e5c69e;fill-opacity:1;fill-rule:nonzero;stroke:none"
         id="path3081" /><path
         d="m 631.039,560.82 c -1.18,-0.199 -2.355,-0.351 -3.539,-0.351 0.012,0 0.02,0 0.027,0 1.125,0 2.313,0.152 3.512,0.351"
         style="fill:#ffffff;fill-opacity:1;fill-rule:nonzero;stroke:none"
         id="path3083" /><path
         d="m 523.207,629.961 c 0.43,-1.293 0.895,-2.52 1.313,-3.793 -0.411,1.242 -0.86,2.48 -1.239,3.73 l -0.074,0.063"
         style="fill:#ffffff;fill-opacity:1;fill-rule:nonzero;stroke:none"
         id="path3085" /><path
         d="m 1369.35,665.352 c -6.34,0.699 -11.7,5.148 -13.56,11.347 l -73.7,242.871 c -12.37,1.621 -23.33,2.52 -32.59,2.52 -9.31,0 -20.2,-0.899 -32.54,-2.52 l -71.65,-235.879 c -1.69,-5.5 -6.24,-9.75 -11.9,-10.992 l -34.25,-7.629 c -2.9,-12.101 -12.77,-29.851 -44.53,-39.59 -51.26,-15.628 -375.739,-112.351 -412.739,-107.082 -21.614,3.024 -62.711,25.723 -93.121,44.063 -12.168,28.629 -18.903,48.109 -20.442,52.73 l 0,0.098 -0.086,-0.098 c 4.297,-12.582 46.637,-134.453 132.664,-253.679 92.235,27.199 171.891,52.527 197.364,60.578 51.882,80 125.789,159.379 178.28,162.09 9.11,0.449 18.48,0.738 27.77,0.738 25.72,0 50.27,-1.84 73.06,-4.527 -19.36,17.558 -23.33,38.109 -26.14,47.218 0,0 67.04,-52.418 152.32,-41.379 85.39,10.918 138.37,60.09 138.37,60.09 l 1.69,15.129 -34.27,3.903"
         style="fill:#e5c69e;fill-opacity:1;fill-rule:nonzero;stroke:none"
         id="path3087" /><path
         d="m 600.027,576.102 18.235,-12.723 -18.235,12.781 -54.675,38.281 0,-0.043 54.675,-38.296"
         style="fill:#ffffff;fill-opacity:1;fill-rule:nonzero;stroke:none"
         id="path3089" /><path
         d="m 1438.67,634.609 c -17.69,4.571 -28.82,11.871 -35.87,19.493 l -0.88,-7.782 c 0,0 -0.3,-35.84 -37.44,-63.601 71.51,21.66 101.09,29 121.34,29 22.29,0 33.32,-9.301 42.99,-17.489 1.84,-1.519 3.66,-3.109 5.85,-4.832 55.01,-43.277 121.13,-95.839 140.44,-111.289 22.39,-2.589 93.46,-10.699 138.17,-14.789 25.76,-2.41 49.08,-4.34 71.91,-4.34 7.32,0 14.26,0.25 20.79,0.7 23.59,45.16 45.3,95.121 64.61,150.211 -26.43,-18.571 -86.7,-59.153 -114.92,-64.391 -36.73,-6.871 -365.2,75.691 -416.99,89.109"
         style="fill:#e5c69e;fill-opacity:1;fill-rule:nonzero;stroke:none"
         id="path3091" /><path
         d="m 1971.25,611.789 c 2.05,5.891 4.09,11.781 6.07,17.762 -2,-5.961 -4.02,-11.871 -6.07,-17.762"
         style="fill:#ffffff;fill-opacity:1;fill-rule:nonzero;stroke:none"
         id="path3093" /><path
         d="m 1877.88,607.789 c -0.98,-0.07 -1.94,-0.051 -2.89,0.082 0.96,-0.133 1.91,-0.152 2.89,-0.082"
         style="fill:#ffffff;fill-opacity:1;fill-rule:nonzero;stroke:none"
         id="path3095" /><path
         d="m 2265.22,1483.93 c -0.63,7.78 -1.48,15.56 -2.42,23.23 -0.65,5.5 -1.52,11.2 -2.47,16.49 -20.74,17.44 -44.33,32.98 -68.86,47.05 -26.58,15.6 -54.42,29.47 -82.84,42.39 -28.17,13.32 -57.16,25.36 -86.26,37.1 -14.56,5.94 -29.22,11.64 -43.97,17.08 -14.67,5.74 -29.47,11.09 -44.34,16.49 31.16,-5.16 62.05,-12.29 92.71,-20.16 19.95,-5.1 39.77,-10.89 59.46,-17.08 -140.15,366.18 -475.08,604.63 -840.81,604.63 -365.772,0 -700.67,-238.46 -840.717,-604.63 19.656,6.19 39.527,11.98 59.379,17.08 30.641,7.87 61.547,15 92.758,20.16 -14.961,-5.4 -29.731,-10.75 -44.481,-16.49 -14.66,-5.45 -29.316,-11.14 -43.879,-17.08 -29.121,-11.74 -58.058,-23.78 -86.324,-37.1 -28.316,-12.92 -56.144,-26.79 -82.758,-42.39 -24.55,-14.07 -48.089,-29.61 -68.878,-47.05 -0.852,-5.3 -1.75,-11 -2.438,-16.49 -0.926,-7.67 -1.773,-15.45 -2.461,-23.23 -1.351,-15.61 -1.883,-31.25 -1.992,-46.95 -0.34,-31.4 1.793,-62.79 5.742,-93.8 4.32,-31.15 10.02,-62.1 18.449,-92.02 4.137,-14.95 8.891,-29.71 14.36,-44.02 2.761,-7.13 5.742,-14.21 8.859,-21 1.527,-3.42 3.121,-6.79 4.774,-10 l 2.007,-3.82 c 2.285,-1.14 4.719,-2.37 6.981,-3.47 l 13.922,-6.64 c 7.765,-3.56 18.539,-8.67 27.429,-12.64 0.496,0.45 0.996,0.9 1.399,1.34 l -25.852,98.46 c 5.489,1.48 54.571,14.17 139.16,30.31 -6.789,1.28 -13.671,2.72 -20.449,4.36 -19.258,4.81 -38.269,10.65 -56.711,18.08 -9.121,3.87 -18.117,8.07 -26.687,12.92 -8.574,4.95 -16.992,10.5 -23.539,17.93 92.918,-30.36 284.98,-16.64 455.715,1.04 156.101,16.09 312.672,26.49 469.992,26.84 157.29,-0.35 313.9,-10.75 469.93,-26.84 170.81,-17.68 362.86,-31.4 455.77,-1.04 -6.48,-7.43 -14.96,-12.98 -23.46,-17.93 -8.62,-4.85 -17.65,-9.06 -26.77,-12.92 -18.42,-7.43 -37.37,-13.27 -56.65,-18.08 -2.87,-0.69 -5.75,-1.29 -8.6,-1.93 92.79,-17.19 146.79,-31.2 152.52,-32.73 l -24.72,-93.79 c 5.02,2.17 10.07,4.35 14.91,6.63 l 13.96,6.64 c 2.29,1.1 4.67,2.33 7.03,3.47 l 1.88,3.82 c 1.69,3.21 3.33,6.58 4.84,10 3.13,6.79 6.11,13.87 8.83,21 5.44,14.31 10.21,29.07 14.37,44.02 8.47,29.92 14.16,60.87 18.41,92.02 4.03,31.01 6.17,62.4 5.87,93.8 -0.13,15.69 -0.67,31.34 -2.08,46.94"
         style="fill:#e0de89;fill-opacity:1;fill-rule:nonzero;stroke:none"
         id="path3097" /><path
         d="m 1630.24,1666.08 c 1.42,-41.89 0.38,-117.91 -19.13,-189.03 -0.79,-2.72 -0.69,-5.55 0,-8.18 -24.85,2.63 -49.72,4.86 -74.57,6.89 27.87,58.45 33.96,120.69 35.31,142.63 21.44,15.2 42.74,33.48 58.39,47.69"
         style="fill:#dbc577;fill-opacity:1;fill-rule:nonzero;stroke:none"
         id="path3099" /><path
         d="m 919.059,1618.39 c 1.3,-21.93 7.39,-84.03 35.261,-142.49 -24.863,-1.97 -49.718,-4.25 -74.519,-6.88 0.668,2.52 0.719,5.3 0,8.02 -19.481,71.02 -20.52,147.04 -19.18,189.03 15.707,-14.2 36.957,-32.48 58.438,-47.68"
         style="fill:#dbc577;fill-opacity:1;fill-rule:nonzero;stroke:none"
         id="path3101" /><path
         d="m 2046.61,1362.88 c 0.6,-0.28 0.55,-0.26 0,0 l 0,0"
         style="fill:#dbc577;fill-opacity:1;fill-rule:nonzero;stroke:none"
         id="path3103" /><path
         d="m 1935.51,1410.84 c -0.11,-0.69 -0.3,-1.39 -0.51,-2.08 2.73,-0.79 5.4,-1.59 8.12,-2.48 22.99,-7.53 46,-15.4 67.97,-25.54 -36.67,23.82 -59.94,92.58 -72.9,145.14 3.56,-68.8 -2.34,-112.44 -2.68,-115.04"
         style="fill:#dbc577;fill-opacity:1;fill-rule:nonzero;stroke:none"
         id="path3105" /><path
         d="m 2042.66,1364.82 c 1.87,-0.92 3.28,-1.62 3.96,-1.94 -0.6,0.28 -1.88,0.91 -3.96,1.94"
         style="fill:#dbc577;fill-opacity:1;fill-rule:nonzero;stroke:none"
         id="path3107" /><path
         d="m 2034.06,1369.02 c 3.72,-1.83 6.55,-3.2 8.59,-4.2 -2.36,1.16 -5.42,2.65 -8.59,4.2"
         style="fill:#dbc577;fill-opacity:1;fill-rule:nonzero;stroke:none"
         id="path3109" /><path
         d="m 2034.06,1369.02 c -0.19,0.09 -0.35,0.18 -0.54,0.26 l 0,0 c 0.19,-0.08 0.37,-0.17 0.54,-0.26"
         style="fill:#dbc577;fill-opacity:1;fill-rule:nonzero;stroke:none"
         id="path3111" /><path
         d="m 830.027,1679.3 -237.289,-67.49 c -14.207,-92.29 -9.879,-162.78 -7.586,-187.25 l 1.196,0.73 c 0,0 7.734,100.54 23.492,139.12 8.121,19.81 57.793,32.45 95.656,41.5 37.957,9.02 98.465,27.08 110.211,-26.2 7.254,-32.92 17.231,-60.3 26.805,-80.49 -15.242,73.21 -14.27,144.77 -12.485,180.08"
         style="fill:#dbc577;fill-opacity:1;fill-rule:nonzero;stroke:none"
         id="path3113" /><path
         d="m 1660.79,1679.3 c 1.94,-36.69 2.84,-112.51 -14.37,-188.64 10.79,20.68 22.77,51.19 31.11,89.05 11.73,53.28 72.24,35.22 110.19,26.2 37.94,-9.06 87.56,-21.69 95.67,-41.5 13.37,-32.66 20.92,-109.66 22.93,-132.56 2.26,29.44 4.76,95.62 -8.17,179.97 l -237.36,67.48"
         style="fill:#dbc577;fill-opacity:1;fill-rule:nonzero;stroke:none"
         id="path3115" /><path
         d="m 917.18,1658.75 c 8.429,-6.73 17.25,-13.32 25.816,-19.12 4.152,-2.88 6.695,-7.57 6.785,-12.62 0.047,-0.8 1.828,-78.98 36.391,-145.55 0.5,-1 0.848,-2.09 1.187,-3.12 85.931,5.84 172.111,8.22 258.081,8.27 86.03,-0.05 172.15,-2.58 258.03,-8.47 0.35,1.13 0.67,2.23 1.28,3.32 34.51,66.57 36.36,144.75 36.36,145.55 0.09,5.05 2.68,9.75 6.83,12.62 8.29,5.6 16.66,11.96 24.86,18.46 l 1.07,3.06 c 17.97,174.87 -14.99,336.02 -35.93,415.65 -1.11,-54.44 -14.01,-520.97 -129.77,-520.97 -122.86,0 -147.48,0 -147.48,0 l -24.56,0 c 0,0 -24.57,0 -147.48,0 -122.931,0 -132.822,525.99 -132.822,525.99 l -6.324,-18.68 C 928.531,1979.27 899.73,1825.11 917.18,1658.75"
         style="fill:#dbc577;fill-opacity:1;fill-rule:nonzero;stroke:none"
         id="path3117" /><path
         d="m 1617.95,1787.07 -1.91,7.08 c 0.24,-3.57 0.48,-7.1 0.68,-10.58 l 1.23,3.5"
         style="fill:#dbc577;fill-opacity:1;fill-rule:nonzero;stroke:none"
         id="path3119" /><path
         d="m 444.148,1362.88 c -0.539,-0.26 -0.589,-0.28 0,0 l 0,0"
         style="fill:#dbc577;fill-opacity:1;fill-rule:nonzero;stroke:none"
         id="path3121" /><path
         d="m 456.711,1369.02 c 0.43,0.21 0.855,0.42 1.297,0.63 l 0,0 c -0.469,-0.23 -0.852,-0.41 -1.297,-0.63"
         style="fill:#dbc577;fill-opacity:1;fill-rule:nonzero;stroke:none"
         id="path3123" /><path
         d="m 456.711,1369.02 c -3.18,-1.55 -6.231,-3.04 -8.59,-4.2 2.031,1 4.848,2.37 8.59,4.2"
         style="fill:#dbc577;fill-opacity:1;fill-rule:nonzero;stroke:none"
         id="path3125" /><path
         d="m 448.121,1364.82 c -2.109,-1.03 -3.359,-1.66 -3.961,-1.94 0.668,0.32 2.07,1.02 3.961,1.94"
         style="fill:#dbc577;fill-opacity:1;fill-rule:nonzero;stroke:none"
         id="path3127" /><path
         d="m 555.867,1408.8 c -0.105,0.69 -0.297,1.34 -0.457,2.04 -0.383,2.6 -6.301,46.29 -2.73,115.16 -12.977,-52.6 -36.309,-121.47 -73.039,-145.29 21.968,10.18 45.082,18.08 68.097,25.62 2.684,0.84 5.442,1.64 8.129,2.47"
         style="fill:#dbc577;fill-opacity:1;fill-rule:nonzero;stroke:none"
         id="path3129" /><path
         d="m 2035.5,703.059 c -1.96,-10.079 -3.58,-18.168 -6.79,-30.879 26.35,-6.129 69.44,-10.891 90.03,-6.871 8.82,9.582 20.2,42.8 30.43,82.711 -24.63,-23.489 -68.51,-56.079 -113.67,-44.961"
         style="fill:#a59077;fill-opacity:1;fill-rule:nonzero;stroke:none"
         id="path3131" /><path
         d="m 1091.16,58.0391 c 62.94,-17.2188 127.23,-24.6993 190.57,-20.5 63.54,4.3125 146.04,18.0195 233.61,53.582 -19.65,1.4492 -38.64,5.4687 -56.71,11.8789 -64.4,-19.6211 -187.15,-48.8984 -298.71,-29.7617 -29.53,-9.7266 -52.68,-12.7578 -54.94,-13.0274 -4.66,-0.5312 -8.51,-1.1718 -13.82,-2.1718"
         style="fill:#a59077;fill-opacity:1;fill-rule:nonzero;stroke:none"
         id="path3133" /><path
         d="m 480.707,640.449 c -1.449,4.66 -2.777,9.391 -4.16,14.102 -46.027,-8.52 -90.567,15.859 -120.777,38.98 9.781,-31.312 19.652,-55.922 27.043,-63.39 22.789,-3.973 73.207,3.007 97.894,10.308"
         style="fill:#a59077;fill-opacity:1;fill-rule:nonzero;stroke:none"
         id="path3135" /><path
         d="m 548.762,562.461 c 30.398,-18.34 71.496,-41.051 93.117,-44.063 37.004,-5.269 361.481,91.454 412.741,107.082 31.76,9.739 41.63,27.489 44.53,39.59 L 631.039,560.82 c -1.191,-0.199 -2.379,-0.351 -3.512,-0.351 -0.007,0 -0.015,0 -0.027,0 0,0 -0.012,0 -0.02,0 -3.234,0 -6.46,0.992 -9.218,2.91 l -18.235,12.723 -54.675,38.296 0,0.09 -22.071,15.41 c 0.379,-1.25 0.828,-2.488 1.239,-3.73 1.25,-3.629 2.484,-7.328 3.8,-10.879 l 0,-0.098 c 1.539,-4.621 8.274,-24.101 20.442,-52.73"
         style="fill:#a59077;fill-opacity:1;fill-rule:nonzero;stroke:none"
         id="path3137" /><path
         d="m 1984.74,652.379 c 3.02,11.031 5.94,22.23 8.61,33.531 l -16.25,-11.398 -43.74,-30.653 -47.33,-33.16 c -2.42,-1.679 -5.24,-2.699 -8.14,-2.898 -0.98,-0.071 -1.93,-0.051 -2.89,0.07 l -471.38,53.578 -0.81,-7.328 c 7.05,-7.641 18.18,-14.922 35.87,-19.512 51.79,-13.418 380.25,-95.968 416.99,-89.089 28.22,5.242 88.5,45.82 114.92,64.39 0.22,0.629 0.44,1.258 0.66,1.891 2.05,5.89 4.07,11.801 6.07,17.769 2.52,7.52 4.98,15.09 7.42,22.809"
         style="fill:#a59077;fill-opacity:1;fill-rule:nonzero;stroke:none"
         id="path3139" /><path
         d="m 1485.97,1287.47 c -3.7,-4.81 -7.77,-10.05 -12.13,-15.55 -22.39,-28.28 -53.4,-64.38 -90.13,-99.79 -42.79,1.34 -86.72,2.08 -131.94,2.08 -74.74,0 -146.4,-1.97 -214.44,-5.24 96.18,39.86 211.67,78.84 336.77,102.22 36.5,6.92 73.88,12.47 111.87,16.28"
         style="fill:#6e696d;fill-opacity:1;fill-rule:nonzero;stroke:none"
         id="path3141" /><path
         d="m 923.32,1244.43 c -34.371,-24.12 -73.09,-54.87 -110.679,-92.21 -96.219,-9.66 -180.207,-21.29 -249.442,-32.48 106.457,48.92 227.992,93.99 360.121,124.69"
         style="fill:#6e696d;fill-opacity:1;fill-rule:nonzero;stroke:none"
         id="path3143" /><path
         d="m 2099.24,1045.74 -39.19,-273.849 -187.54,-131.411 -489.1,55.622 -73.59,242.476 c -1.75,5.883 -6.74,10.211 -12.82,11.231 -18.12,2.929 -34.12,4.371 -47.5,4.371 -13.41,0 -29.42,-1.442 -47.64,-4.371 -6.01,-1.039 -10.96,-5.348 -12.79,-11.231 L 1117.28,702.012 630.938,593.789 438.199,728.809 400.16,1036.14 c 8.32,4.64 16.75,9.31 25.199,13.95 11.95,2.58 25.371,5.3 40.223,8.13 l 35.801,-290.009 c 0.488,-4.5 3.027,-8.531 6.746,-11.121 l 132.633,-92.91 c 2.668,-1.852 5.937,-2.891 9.14,-2.891 1.188,0 2.328,0.16 3.578,0.41 l 399.85,88.949 c 1.39,0.34 2.71,0.832 4,1.461 3.67,2.012 6.63,5.371 7.83,9.571 l 72.06,237.07 c 19.31,4.96 68.79,16.55 112.27,16.55 43.39,0 92.87,-11.59 112.23,-16.55 l 72.01,-237.07 c 1.83,-6.141 7.22,-10.602 13.56,-11.328 l 399.91,-45.434 c 3.86,-0.449 7.8,0.602 10.99,2.832 l 132.67,92.75 c 3.58,2.578 6.04,6.59 6.64,10.949 l 35.42,247.801 c 26.59,-5.07 48.82,-9.74 66.32,-13.51"
         style="fill:#6e696d;fill-opacity:1;fill-rule:nonzero;stroke:none"
         id="path3145" /><path
         d="m 2148.61,1217.49 -34.43,-130.6 c -70.41,15.55 -225.03,46.01 -435.51,66.52 68.74,29.32 138.77,66.06 202.75,112.07 125.25,-17.68 217.21,-36.7 267.19,-47.99"
         style="fill:#6e696d;fill-opacity:1;fill-rule:nonzero;stroke:none"
         id="path3147" /><path
         d="m 355.027,1217.49 9.575,-36.15 c 26.789,21.34 51.304,39.02 72,53.13 -33.719,-6.48 -61.219,-12.37 -81.575,-16.98"
         style="fill:#6e696d;fill-opacity:1;fill-rule:nonzero;stroke:none"
         id="path3149" /><path
         d="m 1819.42,1282.66 c -0.1,0.1 -0.24,0.16 -0.34,0.16 -23.09,1.72 -46.15,3.28 -69.23,4.78 23.08,-1.5 46.14,-3.07 69.23,-4.83 0.15,-0.01 0.25,-0.06 0.34,-0.11"
         style="fill:#a41b28;fill-opacity:1;fill-rule:nonzero;stroke:none"
         id="path3151" /><path
         d="m 1650.35,1186.52 c 52.73,23.34 106.42,52.18 157.47,87.82 -51.06,-35.63 -104.74,-64.47 -157.47,-87.82"
         style="fill:#a41b28;fill-opacity:1;fill-rule:nonzero;stroke:none"
         id="path3153" /><path
         d="m 1705.42,1290.34 c -52.71,2.97 -105.39,5.5 -158.14,7.68 -3.02,-4.51 -9.25,-13.56 -18.16,-25.76 -28.26,-38.22 -83.97,-107.92 -155.36,-167.71 53.72,17.03 266.82,88.51 374.77,183.12 -14.37,0.92 -28.73,1.84 -43.11,2.67"
         style="fill:#a41b28;fill-opacity:1;fill-rule:nonzero;stroke:none"
         id="path3155" /><path
         d="m 1105.88,1241.95 c -3.83,-1.39 -7.68,-2.78 -11.46,-4.18 3.78,1.4 7.63,2.79 11.46,4.18"
         style="fill:#a41b28;fill-opacity:1;fill-rule:nonzero;stroke:none"
         id="path3157" /><path
         d="m 1130.25,1250.56 c -4.38,-1.51 -8.75,-3.03 -13.07,-4.56 4.32,1.53 8.69,3.05 13.07,4.56"
         style="fill:#a41b28;fill-opacity:1;fill-rule:nonzero;stroke:none"
         id="path3159" /><path
         d="m 1082.3,1233.25 c -3.31,-1.24 -6.58,-2.48 -9.85,-3.72 3.27,1.24 6.54,2.49 9.85,3.72"
         style="fill:#a41b28;fill-opacity:1;fill-rule:nonzero;stroke:none"
         id="path3161" /><path
         d="m 1059.44,1224.5 c -2.68,-1.04 -5.31,-2.08 -7.97,-3.13 2.66,1.04 5.3,2.08 7.97,3.13"
         style="fill:#a41b28;fill-opacity:1;fill-rule:nonzero;stroke:none"
         id="path3163" /><path
         d="m 1156.12,1259.29 c -5.19,-1.7 -10.36,-3.41 -15.49,-5.15 5.13,1.73 10.31,3.44 15.49,5.15"
         style="fill:#a41b28;fill-opacity:1;fill-rule:nonzero;stroke:none"
         id="path3165" /><path
         d="m 1244.45,1285.78 c -18.72,-5.08 -37.17,-10.37 -55.19,-15.9 18.04,5.54 36.48,10.82 55.19,15.9"
         style="fill:#a41b28;fill-opacity:1;fill-rule:nonzero;stroke:none"
         id="path3167" /><path
         d="m 1189.27,1269.88 c -8.26,-2.54 -16.46,-5.15 -24.59,-7.77 8.13,2.63 16.33,5.23 24.59,7.77"
         style="fill:#a41b28;fill-opacity:1;fill-rule:nonzero;stroke:none"
         id="path3169" /><path
         d="m 1015.73,1206.84 c -0.26,-0.11 -0.54,-0.22 -0.79,-0.33 0.26,0.11 0.53,0.22 0.79,0.33"
         style="fill:#a41b28;fill-opacity:1;fill-rule:nonzero;stroke:none"
         id="path3171" /><path
         d="m 1037.24,1215.67 c -1.8,-0.71 -3.54,-1.44 -5.32,-2.17 1.77,0.73 3.52,1.46 5.32,2.17"
         style="fill:#a41b28;fill-opacity:1;fill-rule:nonzero;stroke:none"
         id="path3173" /><path
         d="m 1319.19,1304.25 c 0.08,0.02 0.16,0.03 0.23,0.05 -26.75,0.35 -53.5,0.64 -80.19,0.74 l -0.05,0 c -39.32,-0.1 -78.55,-0.6 -117.87,-1.29 l -72.5,-34.37 c -0.11,0 -0.55,-0.25 -1.07,-0.6 -10.91,-5.3 -106.08,-53.33 -195.689,-139.01 7.836,4.13 16.148,8.41 24.707,12.75 49.012,32.93 179.722,110.91 382.962,162.31 19.83,-0.12 39.66,-0.24 59.47,-0.58"
         style="fill:#a41b28;fill-opacity:1;fill-rule:nonzero;stroke:none"
         id="path3175" /><path
         d="m 873.672,1295.49 c -33.574,-1.55 -67.152,-3.27 -100.692,-5.16 -38.886,-2.18 -77.66,-4.8 -116.398,-7.72 -19.32,-1.48 -38.672,-3.13 -57.832,-5.15 -5.562,-0.54 -11,-1.14 -16.449,-1.84 -50.621,-30.25 -244.363,-151.87 -377.473,-311.05 2.289,2.75 4.664,5.489 7.012,8.219 246.43,210.231 516.613,292.071 661.832,322.701"
         style="fill:#a41b28;fill-opacity:1;fill-rule:nonzero;stroke:none"
         id="path3177" /><path
         d="M 811.633,1259.85 C 545.43,1181.1 330.113,1051.64 204.828,964.57 c 125.324,87.09 340.602,216.54 606.805,295.28"
         style="fill:#a41b28;fill-opacity:1;fill-rule:nonzero;stroke:none"
         id="path3179" /><path
         d="m 837.559,1267.32 c 44.273,12.38 89.882,23.27 136.679,32.29 -0.105,-0.01 -0.211,-0.01 -0.308,-0.01 -46.641,-9.06 -92.2,-19.89 -136.371,-32.28"
         style="fill:#a41b28;fill-opacity:1;fill-rule:nonzero;stroke:none"
         id="path3181" /><path
         d="m 1967.29,382.59 c 0,0 -0.04,-0.051 -0.08,-0.11 -0.01,-0.019 -0.02,-0.019 -0.03,-0.039 0.03,0.079 0.07,0.098 0.11,0.149"
         style="fill:#a41b28;fill-opacity:1;fill-rule:nonzero;stroke:none"
         id="path3183" /><path
         d="m 2024.81,448.629 c 1.38,0.621 2.72,1.269 4.1,1.891 -1.37,-0.641 -2.72,-1.25 -4.1,-1.891"
         style="fill:#a41b28;fill-opacity:1;fill-rule:nonzero;stroke:none"
         id="path3185" /><path
         d="m 2034.03,452.93 c 0.84,0.39 1.67,0.781 2.51,1.172 -0.84,-0.391 -1.67,-0.782 -2.51,-1.172"
         style="fill:#a41b28;fill-opacity:1;fill-rule:nonzero;stroke:none"
         id="path3187" /><path
         d="m 2008.68,440.898 c 1.85,0.911 3.73,1.793 5.64,2.704 -1.91,-0.911 -3.79,-1.793 -5.64,-2.704"
         style="fill:#a41b28;fill-opacity:1;fill-rule:nonzero;stroke:none"
         id="path3189" /><path
         d="m 2001.46,437.359 c 1.94,0.961 3.96,1.93 5.98,2.93 -2.05,-1 -4.03,-1.969 -5.98,-2.93"
         style="fill:#a41b28;fill-opacity:1;fill-rule:nonzero;stroke:none"
         id="path3191" /><path
         d="m 1302.9,310.59 1.05,-1.25 c 0.87,-0.629 1.77,-1.34 2.71,-2.031 -1.24,1.101 -2.52,2.171 -3.76,3.281"
         style="fill:#a41b28;fill-opacity:1;fill-rule:nonzero;stroke:none"
         id="path3193" /><path
         d="m 2016.46,444.648 c 1.67,0.801 3.36,1.602 5.04,2.403 -1.69,-0.801 -3.36,-1.602 -5.04,-2.403"
         style="fill:#a41b28;fill-opacity:1;fill-rule:nonzero;stroke:none"
         id="path3195" /><path
         d="m 1988.58,430.879 0,0 c 0.43,0.199 0.85,0.441 1.29,0.652 -0.42,-0.211 -0.87,-0.441 -1.29,-0.652"
         style="fill:#a41b28;fill-opacity:1;fill-rule:nonzero;stroke:none"
         id="path3197" /><path
         d="m 1989.87,431.539 c 1.28,0.66 2.57,1.313 3.91,1.992 -1.35,-0.679 -2.63,-1.332 -3.91,-1.992"
         style="fill:#a41b28;fill-opacity:1;fill-rule:nonzero;stroke:none"
         id="path3199" /><path
         d="m 1993.78,433.531 c 2.29,1.149 4.62,2.309 7.06,3.52 -2.44,-1.211 -4.8,-2.371 -7.06,-3.52"
         style="fill:#a41b28;fill-opacity:1;fill-rule:nonzero;stroke:none"
         id="path3201" /><path
         d="m 1988.58,430.879 c -1.48,-0.77 -3.05,-1.57 -4.45,-2.301 -24.71,-12.988 -57.1,-19.348 -98.95,-19.348 -24.91,0 -49.34,2.09 -76.42,4.54 -54.07,4.941 -145.6,15.718 -146.54,15.878 l -6.98,0.743 -5.55,4.468 c -0.84,0.551 -80.98,64.469 -145.79,115.422 -2.63,2.137 -5.02,4.18 -7.18,5.899 -6.84,5.851 -6.84,5.851 -10.91,5.851 -20.8,0 -81.22,-18.769 -213.54,-59.769 l -8.12,-2.602 -8.03,3.051 c -0.9,0.238 -87.72,32.418 -191.77,32.418 -8.53,0 -17.02,-0.199 -25.29,-0.598 -10.41,-0.551 -68.888,-28.32 -143.728,-146.64 l -4.789,-7.641 -8.625,-2.75 c -1.238,-0.41 -129.988,-41.961 -266.535,-81 l -8.813,-2.5 -8.422,3.891 c -0.886,0.308 -54.207,25.089 -105.027,48.398 3.738,-1.738 7.508,-3.437 11.258,-5.18 50.172,-43.3 146.242,-126.578 156.91,-138.129 1.481,-1.66 3.539,-3.691 5.992,-5.98 -2.48,2.789 -4.879,5.68 -7.242,8.59 -0.027,0.019 -0.059,0.058 -0.09,0.101 l 0.012,-0.019 -0.012,0.019 c 22.141,-21.011 46.844,-39.121 73.828,-51.882 13.473,-6.329 27.594,-11.239 41.942,-13.618 7.242,-1.191 14.269,-1.781 21.601,-1.781 7.422,0 15.008,0.231 22.582,0.59 30.02,1.539 60.309,3.852 90.536,6.781 30.171,2.707 60.382,5.739 90.532,9.391 30.12,3.238 60.23,7.027 90.08,11.656 14.96,2.192 29.82,4.652 44.34,7.871 7.13,1.68 14.56,3.551 20.21,6.102 5.15,2.449 11.4,7.41 16.89,12.129 11.23,9.66 22.08,20.39 32.82,31.09 10.76,10.679 21.25,21.679 31.76,32.832 17.67,18.519 32.83,38.187 49.95,57.25 2.19,2.359 4.42,4.878 6.7,7.32 0,-0.043 0,-0.043 0.04,-0.043 l 0.2,-0.211 c 3.57,-2.578 7.13,-5.18 10.62,-7.906 20.6,-15.371 41.89,-31.992 62.39,-46.352 26.45,-18.59 53.23,-37.211 80.94,-52.711 6.92,-3.828 14.06,-7.449 20.89,-9.699 0.88,-0.32 1.62,-0.488 2.32,-0.59 0.49,-0.289 2.32,-0.59 2.53,-0.59 1.34,-0.199 3.15,-0.3 4.89,-0.41 3.73,-0.039 7.59,0.11 11.46,0.309 15.63,1.07 31.48,3.359 47.34,5.84 31.69,4.929 63.44,10.621 95.03,16.961 31.64,6.05 63.24,12.539 94.65,19.519 31.58,6.691 63,14.07 94.18,21.922 15.51,4.18 31.02,8.019 44.88,14.668 14.11,6.582 27.24,15.609 39.32,25.961 24.37,20.75 44.87,46.5 61.89,74.519 -0.02,-0.039 -0.03,-0.05 -0.04,-0.089 10.45,19.441 17.3,36.769 21.33,48.359"
         style="fill:#a41b28;fill-opacity:1;fill-rule:nonzero;stroke:none"
         id="path3203" /><path
         d="m 1397.82,1920.04 55.72,0 0,113.21 -407.44,0 0,-113.21 55.72,0 0,57.5 115.22,0 0,-349.59 -47.43,0 0,-64.88 160.4,0 0,64.88 -47.44,0 0,349.59 115.25,0 0,-57.5"
         style="fill:#a41b28;fill-opacity:1;fill-rule:nonzero;stroke:none"
         id="path3205" /><path
         d="m 1650.35,1186.52 c -107.24,-47.48 -210.54,-72.18 -279.72,-84.62 69.18,12.42 172.48,37.13 279.72,84.62"
         style="fill:#85152b;fill-opacity:1;fill-rule:nonzero;stroke:none"
         id="path3207" /><path
         d="m 1373.75,1104.55 c -1.05,-0.88 -2.07,-1.77 -3.12,-2.65 1.05,0.88 2.07,1.77 3.12,2.65 l 0,0"
         style="fill:#85152b;fill-opacity:1;fill-rule:nonzero;stroke:none"
         id="path3209" /><path
         d="m 1748.53,1287.68 c 0,0 -0.01,0 0,0 0.44,-0.04 0.89,-0.06 1.33,-0.09 -0.45,0.03 -0.89,0.06 -1.33,0.09"
         style="fill:#85152b;fill-opacity:1;fill-rule:nonzero;stroke:none"
         id="path3211" /><path
         d="m 1819.42,1282.66 c -3.87,-2.72 -7.68,-5.59 -11.6,-8.31 3.98,2.72 7.74,5.64 11.6,8.31"
         style="fill:#85152b;fill-opacity:1;fill-rule:nonzero;stroke:none"
         id="path3213" /><path
         d="m 1819.42,1282.66 c -0.1,0.05 -0.2,0.1 -0.34,0.1 -23.09,1.76 -46.15,3.33 -69.23,4.83 -0.44,0.03 -0.89,0.05 -1.34,0.08 -107.95,-94.61 -321.04,-166.09 -374.77,-183.12 -1.05,-0.88 -2.07,-1.77 -3.12,-2.65 69.18,12.45 172.48,37.15 279.72,84.62 52.72,23.35 106.41,52.18 157.47,87.82 3.94,2.73 7.75,5.6 11.61,8.32"
         style="fill:#85152b;fill-opacity:1;fill-rule:nonzero;stroke:none"
         id="path3215" /><path
         d="m 876.672,1142.48 c 39.308,20 85.926,42.1 138.268,64.03 -52.327,-21.92 -98.901,-43.97 -138.182,-63.97 -0.028,-0.02 -0.07,-0.04 -0.086,-0.06"
         style="fill:#85152b;fill-opacity:1;fill-rule:nonzero;stroke:none"
         id="path3217" /><path
         d="m 1140.63,1254.14 c -3.48,-1.19 -6.92,-2.39 -10.38,-3.58 3.45,1.19 6.91,2.39 10.38,3.58"
         style="fill:#85152b;fill-opacity:1;fill-rule:nonzero;stroke:none"
         id="path3219" /><path
         d="m 1319.19,1304.25 c -25.43,-5.6 -50.32,-11.84 -74.74,-18.47 24.48,6.65 49.45,12.89 74.97,18.47 -0.07,0 -0.15,0 -0.23,0"
         style="fill:#85152b;fill-opacity:1;fill-rule:nonzero;stroke:none"
         id="path3221" /><path
         d="m 1164.68,1262.11 c -2.88,-0.93 -5.69,-1.88 -8.55,-2.82 2.85,0.94 5.68,1.89 8.55,2.82"
         style="fill:#85152b;fill-opacity:1;fill-rule:nonzero;stroke:none"
         id="path3223" /><path
         d="m 1094.41,1237.77 c -4.07,-1.49 -8.11,-3 -12.11,-4.52 4.01,1.52 8.04,3.03 12.11,4.52"
         style="fill:#85152b;fill-opacity:1;fill-rule:nonzero;stroke:none"
         id="path3225" /><path
         d="m 1072.45,1229.53 c -4.37,-1.67 -8.71,-3.35 -13.01,-5.03 4.29,1.68 8.65,3.36 13.01,5.03"
         style="fill:#85152b;fill-opacity:1;fill-rule:nonzero;stroke:none"
         id="path3227" /><path
         d="m 1051.47,1221.37 c -4.78,-1.9 -9.54,-3.78 -14.24,-5.69 4.7,1.9 9.47,3.79 14.24,5.69"
         style="fill:#85152b;fill-opacity:1;fill-rule:nonzero;stroke:none"
         id="path3229" /><path
         d="m 1031.91,1213.51 c -5.44,-2.22 -10.86,-4.44 -16.18,-6.67 5.32,2.22 10.75,4.45 16.18,6.67"
         style="fill:#85152b;fill-opacity:1;fill-rule:nonzero;stroke:none"
         id="path3231" /><path
         d="m 1117.19,1246.01 c -3.8,-1.35 -7.54,-2.7 -11.31,-4.06 3.77,1.36 7.51,2.71 11.31,4.06"
         style="fill:#85152b;fill-opacity:1;fill-rule:nonzero;stroke:none"
         id="path3233" /><path
         d="m 1259.72,1304.84 c -203.24,-51.4 -333.95,-129.38 -382.962,-162.31 39.293,20 85.855,42.06 138.182,63.97 0.25,0.11 0.53,0.22 0.79,0.33 5.32,2.22 10.74,4.45 16.18,6.67 1.78,0.73 3.53,1.46 5.32,2.17 4.7,1.91 9.46,3.79 14.24,5.69 2.66,1.04 5.29,2.08 7.97,3.13 4.3,1.68 8.64,3.36 13.01,5.03 3.27,1.24 6.54,2.49 9.85,3.72 4,1.52 8.04,3.03 12.11,4.52 3.79,1.4 7.64,2.79 11.46,4.18 3.77,1.36 7.51,2.71 11.31,4.06 4.32,1.52 8.68,3.04 13.07,4.56 3.46,1.19 6.9,2.39 10.38,3.58 5.13,1.73 10.3,3.44 15.49,5.15 2.86,0.94 5.67,1.89 8.55,2.82 8.13,2.63 16.33,5.23 24.59,7.77 18.02,5.53 36.46,10.82 55.19,15.9 24.41,6.64 49.31,12.87 74.74,18.47 -19.81,0.34 -39.64,0.46 -59.47,0.59"
         style="fill:#85152b;fill-opacity:1;fill-rule:nonzero;stroke:none"
         id="path3235" /><path
         d="m 974.238,1299.65 c -33.496,-1.21 -67.008,-2.6 -100.547,-4.15 -0.007,0 -0.019,-0.01 -0.019,-0.01 33.43,1.54 66.859,2.91 100.25,4.1 0.105,0.02 0.211,0.05 0.316,0.06"
         style="fill:#85152b;fill-opacity:1;fill-rule:nonzero;stroke:none"
         id="path3237" /><path
         d="M 873.672,1295.49 C 728.453,1264.86 458.27,1183.02 211.84,972.789 c -2.348,-2.73 -4.723,-5.461 -7.012,-8.219 125.27,87.07 340.602,216.53 606.805,295.28 8.578,2.54 17.238,5.02 25.926,7.46 44.171,12.4 89.742,23.22 136.371,32.28 -33.399,-1.19 -66.828,-2.56 -100.258,-4.1"
         style="fill:#85152b;fill-opacity:1;fill-rule:nonzero;stroke:none"
         id="path3239" /><path
         d="m 2000.84,437.051 c 0.21,0.097 0.41,0.199 0.62,0.308 -0.21,-0.121 -0.42,-0.211 -0.62,-0.308"
         style="fill:#85152b;fill-opacity:1;fill-rule:nonzero;stroke:none"
         id="path3241" /><path
         d="m 2034.67,439.25 c 2.2,4.16 4.3,8.211 6.39,12.172 0,0 -0.01,0 -0.01,-0.024 -2.09,-3.918 -4.22,-8.019 -6.38,-12.148"
         style="fill:#85152b;fill-opacity:1;fill-rule:nonzero;stroke:none"
         id="path3243" /><path
         d="m 2007.43,440.289 c 0.42,0.191 0.84,0.41 1.25,0.609 -0.41,-0.199 -0.83,-0.418 -1.25,-0.609"
         style="fill:#85152b;fill-opacity:1;fill-rule:nonzero;stroke:none"
         id="path3245" /><path
         d="m 1303.85,309.422 17.36,-20.652 -17.25,20.57 -0.11,0.082"
         style="fill:#85152b;fill-opacity:1;fill-rule:nonzero;stroke:none"
         id="path3247" /><path
         d="m 2034.67,439.25 c -13.61,-25.969 -28.91,-55.41 -43.62,-84.031 14.72,28.621 30,58.019 43.62,84.031"
         style="fill:#85152b;fill-opacity:1;fill-rule:nonzero;stroke:none"
         id="path3249" /><path
         d="m 1820.1,204.98 c -7.95,-1.82 -15.43,-3.55 -22.21,-5.492 6.78,1.934 14.31,3.672 22.21,5.492"
         style="fill:#85152b;fill-opacity:1;fill-rule:nonzero;stroke:none"
         id="path3251" /><path
         d="m 1820.1,204.98 c 45.59,10.5 107.97,25.02 140.95,91.211 C 1928.03,230 1865.68,215.5 1820.1,204.98"
         style="fill:#85152b;fill-opacity:1;fill-rule:nonzero;stroke:none"
         id="path3253" /><path
         d="m 1967.21,382.5 0.04,0.059 -0.06,-0.079 0.02,0.02"
         style="fill:#85152b;fill-opacity:1;fill-rule:nonzero;stroke:none"
         id="path3255" /><path
         d="m 1991.04,355.219 c -10.58,-20.61 -20.87,-40.797 -30,-59.039 9.14,18.218 19.43,38.429 30,59.039"
         style="fill:#85152b;fill-opacity:1;fill-rule:nonzero;stroke:none"
         id="path3257" /><path
         d="m 2028.92,450.52 c 1.68,0.8 3.4,1.609 5.12,2.41 -1.73,-0.801 -3.44,-1.61 -5.12,-2.41"
         style="fill:#85152b;fill-opacity:1;fill-rule:nonzero;stroke:none"
         id="path3259" /><path
         d="m 1323.19,286.41 c 8.8,-10.351 45.66,-53.129 89.44,-96.57 33.32,-33.012 73.49,-49.692 119.63,-49.692 -46.1,0 -86.31,16.68 -119.63,49.731 -43.77,43.422 -80.64,86.18 -89.44,96.531"
         style="fill:#85152b;fill-opacity:1;fill-rule:nonzero;stroke:none"
         id="path3261" /><path
         d="m 2014.33,443.609 c 0.72,0.352 1.45,0.68 2.14,1.039 -0.7,-0.359 -1.42,-0.687 -2.14,-1.039"
         style="fill:#85152b;fill-opacity:1;fill-rule:nonzero;stroke:none"
         id="path3263" /><path
         d="m 2036.54,454.102 c 2.6,1.207 5.21,2.418 7.8,3.589 -2.58,-1.171 -5.2,-2.382 -7.8,-3.589"
         style="fill:#85152b;fill-opacity:1;fill-rule:nonzero;stroke:none"
         id="path3265" /><path
         d="m 2021.5,447.051 c 1.11,0.519 2.21,1.051 3.31,1.578 -1.1,-0.527 -2.19,-1.059 -3.31,-1.578"
         style="fill:#85152b;fill-opacity:1;fill-rule:nonzero;stroke:none"
         id="path3267" /><path
         d="m 1581.29,146.211 c 15.51,3.75 32.3,7.828 49.53,11.93 51.12,12.211 107.74,25.757 145.35,35.531 -37.61,-9.774 -94.23,-23.301 -145.35,-35.492 -17.23,-4.141 -34.07,-8.16 -49.53,-11.969"
         style="fill:#85152b;fill-opacity:1;fill-rule:nonzero;stroke:none"
         id="path3269" /><path
         d="m 2036.54,454.102 c -0.84,-0.391 -1.67,-0.782 -2.51,-1.172 -1.72,-0.801 -3.44,-1.61 -5.12,-2.41 -1.38,-0.61 -2.72,-1.27 -4.1,-1.879 -1.1,-0.532 -2.2,-1.051 -3.31,-1.571 -1.68,-0.8 -3.37,-1.601 -5.04,-2.41 -0.69,-0.351 -1.42,-0.68 -2.14,-1.039 -1.91,-0.922 -3.8,-1.801 -5.64,-2.711 -0.41,-0.199 -0.83,-0.41 -1.25,-0.609 -2.02,-1.012 -4.03,-1.961 -5.98,-2.93 -0.21,-0.121 -0.41,-0.211 -0.62,-0.301 -4.33,-2.14 -8.43,-4.199 -12.26,-6.172 -4.02,-11.57 -10.89,-28.929 -21.34,-48.328 -0.02,-0.011 -0.04,-0.05 -0.04,-0.07 0.04,0.059 0.08,0.109 0.08,0.109 -0.04,-0.05 -0.08,-0.089 -0.11,-0.148 -17,-27.91 -37.47,-53.602 -61.79,-74.32 -12.08,-10.352 -25.21,-19.371 -39.32,-25.961 -13.87,-6.641 -29.38,-10.481 -44.88,-14.66 -31.18,-7.86 -62.6,-15.239 -94.18,-21.918 -31.41,-6.993 -63.01,-13.473 -94.65,-19.532 -31.59,-6.351 -63.34,-12.031 -95.03,-16.949 -15.86,-2.48 -31.71,-4.781 -47.34,-5.851 -3.87,-0.211 -7.72,-0.34 -11.46,-0.301 -1.74,0.09 -3.55,0.203 -4.89,0.41 -0.21,0 -2.04,0.281 -2.53,0.582 -0.7,0.098 -1.45,0.258 -2.32,0.59 -6.83,2.219 -13.96,5.859 -20.89,9.699 -27.71,15.512 -54.49,34.129 -80.94,52.711 -20.5,14.359 -41.8,30.988 -62.39,46.359 l -1.79,-2.55 0.12,-0.141 c 1.28,-1.149 2.57,-2.231 3.85,-3.359 -0.03,0.019 -0.05,0.039 -0.09,0.058 -0.94,0.692 -1.84,1.402 -2.71,2.031 l 17.26,-20.589 c 0.05,-0.059 0.71,-0.86 1.98,-2.34 8.8,-10.352 45.66,-53.11 89.44,-96.532 33.32,-33.046 73.53,-49.726 119.63,-49.726 15.75,0 32.3,2.066 49.02,6.058 15.46,3.79 32.3,7.801 49.53,11.961 51.12,12.168 107.74,25.719 145.35,35.489 2.49,0.66 4.93,1.3 7.27,1.91 5.32,1.41 10.15,2.711 14.45,3.89 6.78,1.93 14.26,3.692 22.21,5.5 45.59,10.54 107.93,25.02 140.95,91.211 9.13,18.239 19.42,38.438 30,59.039 14.72,28.629 30.01,58.071 43.62,84.02 2.16,4.129 4.3,8.23 6.38,12.16 0,0.02 0.01,0.02 0.01,0.02 1.11,2.109 2.23,4.242 3.29,6.269 -2.56,-1.179 -5.18,-2.39 -7.78,-3.597"
         style="fill:#85152b;fill-opacity:1;fill-rule:nonzero;stroke:none"
         id="path3271" /><path
         d="m 493.02,346.34 c 8.918,-13.149 18.691,-27.43 28.839,-42 -10.113,14.551 -19.839,28.808 -28.73,41.969 -0.027,0.011 -0.066,0.011 -0.109,0.031"
         style="fill:#85152b;fill-opacity:1;fill-rule:nonzero;stroke:none"
         id="path3273" /><path
         d="m 1290.01,311.32 -0.03,-0.011 0.01,0 0.02,0.011"
         style="fill:#85152b;fill-opacity:1;fill-rule:nonzero;stroke:none"
         id="path3275" /><path
         d="m 1290.01,311.289 -0.02,0.02 -11.12,-29.879 11.14,29.859"
         style="fill:#85152b;fill-opacity:1;fill-rule:nonzero;stroke:none"
         id="path3277" /><path
         d="m 567.156,240.98 c -15.144,20.45 -30.617,42.211 -45.297,63.36 14.661,-21.149 30.133,-42.93 45.297,-63.36"
         style="fill:#85152b;fill-opacity:1;fill-rule:nonzero;stroke:none"
         id="path3279" /><path
         d="m 842.301,79.2695 c 16.488,0 34.015,0.961 52.039,3.0508 -18.012,-2.0312 -35.57,-3.0508 -52.059,-3.0508 0.008,0 0.008,0 0.02,0"
         style="fill:#85152b;fill-opacity:1;fill-rule:nonzero;stroke:none"
         id="path3281" /><path
         d="m 587.387,214.27 c -6.574,8.468 -13.387,17.48 -20.231,26.71 6.852,-9.25 13.625,-18.242 20.203,-26.71 54.52,-70.149 123.223,-135.0005 254.903,-135.0005 0.019,0 0.019,0 0.019,0 -131.711,0 -200.363,64.8515 -254.894,135.0005"
         style="fill:#85152b;fill-opacity:1;fill-rule:nonzero;stroke:none"
         id="path3283" /><path
         d="m 1176.16,133.059 c 26.09,12.66 51.76,31.679 64.32,59.832 31.7,70.949 38.14,87.847 38.39,88.531 -0.24,-0.621 -6.69,-17.582 -38.39,-88.492 -12.56,-28.149 -38.22,-47.192 -64.32,-59.871"
         style="fill:#85152b;fill-opacity:1;fill-rule:nonzero;stroke:none"
         id="path3285" /><path
         d="m 1093.9,108.879 c 1.64,0.211 3.31,0.449 5.09,0.672 0.59,0.058 39.32,5.058 77.18,23.508 -37.86,-18.411 -76.58,-23.399 -77.23,-23.45 -1.76,-0.238 -3.42,-0.488 -5.04,-0.73"
         style="fill:#85152b;fill-opacity:1;fill-rule:nonzero;stroke:none"
         id="path3287" /><path
         d="m 917.969,85.0195 c 114.541,13.1797 145.961,18.7305 163.401,21.7505 4.52,0.82 8.37,1.492 12.53,2.121 -4.17,-0.61 -8.02,-1.301 -12.53,-2.071 -17.44,-3.011 -48.86,-8.6208 -163.401,-21.8005"
         style="fill:#85152b;fill-opacity:1;fill-rule:nonzero;stroke:none"
         id="path3289" /><path
         d="m 659.961,205.719 0.09,-0.098 -0.078,0.078 -0.012,0.02"
         style="fill:#85152b;fill-opacity:1;fill-rule:nonzero;stroke:none"
         id="path3291" /><path
         d="m 1289.98,311.309 -2.96,2.812 c -17.12,-19.062 -32.29,-38.73 -49.95,-57.25 -10.51,-11.152 -21,-22.152 -31.76,-32.832 -10.74,-10.699 -21.59,-21.469 -32.82,-31.09 -5.5,-4.719 -11.75,-9.668 -16.89,-12.129 -5.64,-2.539 -13.08,-4.422 -20.21,-6.101 -14.51,-3.219 -29.38,-5.68 -44.34,-7.867 -29.84,-4.633 -59.96,-8.442 -90.08,-11.661 -30.15,-3.652 -60.361,-6.679 -90.532,-9.39 -30.219,-2.93 -60.516,-5.231 -90.536,-6.781 -7.574,-0.348 -15.16,-0.59 -22.582,-0.59 -7.332,0 -14.371,0.59 -21.601,1.781 -14.364,2.379 -28.477,7.289 -41.942,13.609 -26.976,12.77 -51.675,30.899 -73.816,51.879 0.019,-0.019 0.051,-0.058 0.078,-0.078 2.988,-3.672 6.277,-7.133 9.418,-10.641 -0.758,0.7 -1.477,1.379 -2.187,2.051 -2.442,2.289 -4.5,4.309 -5.993,5.969 -10.668,11.57 -106.746,94.852 -156.906,138.141 -3.75,1.75 -7.519,3.449 -11.262,5.179 8.895,-13.16 18.621,-27.422 28.731,-41.968 14.687,-21.153 30.164,-42.911 45.301,-63.364 6.847,-9.238 13.652,-18.238 20.226,-26.699 54.531,-70.168 123.176,-135.0195 254.895,-135.0195 16.488,0 34.047,1.0313 52.058,3.0625 4.2,0.4688 8.278,0.9493 12.289,1.418 3.86,0.4297 7.661,0.8594 11.34,1.2891 114.541,13.1718 145.961,18.7809 163.401,21.7889 4.51,0.781 8.36,1.473 12.53,2.07 1.62,0.243 3.28,0.493 5.04,0.731 0.64,0.051 39.37,5.031 77.23,23.449 26.09,12.684 51.76,31.723 64.32,59.891 31.7,70.89 38.14,87.851 38.39,88.48 l 11.12,29.86 0,0"
         style="fill:#85152b;fill-opacity:1;fill-rule:nonzero;stroke:none"
         id="path3293" /><path
         d="m 1323.19,286.41 c 8.8,-10.351 45.66,-53.129 89.44,-96.57 33.32,-33.012 73.49,-49.692 119.63,-49.692 -46.1,0 -86.31,16.68 -119.63,49.731 -43.77,43.422 -80.64,86.18 -89.44,96.531"
         style="fill:#131211;fill-opacity:1;fill-rule:nonzero;stroke:none"
         id="path3295" /><path
         d="m 567.156,240.98 c -15.144,20.45 -30.617,42.211 -45.297,63.36 14.661,-21.149 30.133,-42.93 45.297,-63.36"
         style="fill:#131211;fill-opacity:1;fill-rule:nonzero;stroke:none"
         id="path3297" /><path
         d="m 1176.16,133.059 c 26.09,12.66 51.76,31.679 64.32,59.832 31.7,70.949 38.14,87.847 38.39,88.531 -0.24,-0.621 -6.69,-17.582 -38.39,-88.492 -12.56,-28.149 -38.22,-47.192 -64.32,-59.871"
         style="fill:#131211;fill-opacity:1;fill-rule:nonzero;stroke:none"
         id="path3299" /><path
         d="m 1302.72,310.75 18.49,-21.98 -18.31,21.832 c -0.06,0.046 -0.11,0.089 -0.18,0.148"
         style="fill:#131211;fill-opacity:1;fill-rule:nonzero;stroke:none"
         id="path3301" /><path
         d="m 842.301,79.2695 c 16.488,0 34.015,0.961 52.039,3.0508 -18.012,-2.0312 -35.57,-3.0508 -52.059,-3.0508 0.008,0 0.008,0 0.02,0"
         style="fill:#131211;fill-opacity:1;fill-rule:nonzero;stroke:none"
         id="path3303" /><path
         d="m 1581.29,146.211 c 15.51,3.75 32.3,7.828 49.53,11.93 54.53,13.031 115.33,27.597 152.62,37.437 -37.29,-9.84 -98.09,-24.406 -152.62,-37.398 -17.23,-4.141 -34.07,-8.16 -49.53,-11.969"
         style="fill:#131211;fill-opacity:1;fill-rule:nonzero;stroke:none"
         id="path3305" /><path
         d="m 906.633,83.7305 c 123.827,14.1211 156.727,19.9415 174.737,23.0395 4.52,0.82 8.37,1.492 12.53,2.121 -4.17,-0.61 -8.02,-1.301 -12.53,-2.071 -18.01,-3.109 -50.91,-8.9684 -174.737,-23.0895"
         style="fill:#131211;fill-opacity:1;fill-rule:nonzero;stroke:none"
         id="path3307" /><path
         d="m 2034.67,439.25 c -13.61,-25.969 -28.91,-55.41 -43.62,-84.031 14.72,28.621 30,58.019 43.62,84.031"
         style="fill:#131211;fill-opacity:1;fill-rule:nonzero;stroke:none"
         id="path3309" /><path
         d="m 1290.01,311.32 -0.03,-0.011 0.01,0 0.02,0.011"
         style="fill:#131211;fill-opacity:1;fill-rule:nonzero;stroke:none"
         id="path3311" /><path
         d="m 1600.27,955.211 c 14.01,0.289 25.15,11.84 24.9,25.84 -0.2,14.019 -11.78,25.219 -25.85,24.909 -14,-0.24 -25.16,-11.819 -24.86,-25.851 0.2,-13.949 11.8,-25.148 25.81,-24.898 z M 1756.34,840.91 c -33.51,16.199 -70.14,-4.289 -136.86,-5.539 -49.67,-1.793 -91.32,-2.332 -94.05,75.598 -2.76,78.109 29.02,142.641 78.7,144.371 49.63,1.75 94.95,-60.129 101.04,-137.969 1.69,-21.492 -0.69,-37.141 -6,-48.73 46.15,5.5 56.67,-25.832 57.17,-27.731"
         style="fill:#131211;fill-opacity:1;fill-rule:nonzero;stroke:none"
         id="path3313" /><path
         d="m 888.961,936.391 c 13.961,0.339 25.019,12.039 24.668,26.007 -0.387,14.063 -12.102,25.102 -26.051,24.711 -14.066,-0.3 -25.105,-12.039 -24.758,-26.007 0.379,-14.051 12.059,-25.114 26.141,-24.711 z m 76.699,-40.852 c 0.742,-77.98 -40.562,-73.301 -90.269,-73.789 -5.047,-0.148 -9.801,-0.23 -14.571,-0.23 -5.543,-0.149 -10.886,-0.211 -16.031,-0.11 -48.25,0.11 -79.047,2.281 -106.336,-12.469 0.641,1.68 12.625,28.469 55.918,39.379 -4.781,10.52 -7.777,25.2 -8.57,45.489 -2.981,77.941 45.105,141.891 94.781,142.341 49.668,0.49 84.34,-62.611 85.078,-140.611"
         style="fill:#131211;fill-opacity:1;fill-rule:nonzero;stroke:none"
         id="path3315" /><path
         d="m 2017.69,1377.02 c 1.14,-0.56 5.18,-2.53 9.92,-4.85 2.2,-1.07 4.14,-2.03 5.92,-2.89 -7.32,4.15 -14.81,7.94 -22.43,11.46 2.03,-1.32 4.11,-2.51 6.22,-3.54 0.13,-0.07 0.23,-0.11 0.37,-0.18"
         style="fill:#131211;fill-opacity:1;fill-rule:nonzero;stroke:none"
         id="path3317" /><path
         d="m 473.102,1377.02 c 0.128,0.06 0.218,0.11 0.336,0.18 2.113,1.03 4.183,2.21 6.203,3.51 -7.352,-3.4 -14.582,-7.08 -21.633,-11.05 1.535,0.75 3.293,1.61 5.16,2.52 4.73,2.31 8.762,4.28 9.934,4.84"
         style="fill:#131211;fill-opacity:1;fill-rule:nonzero;stroke:none"
         id="path3319" /><path
         d="m 1906.33,1431.85 c -0.53,-6.86 -1.04,-11.74 -1.35,-14.38 -19.6,5.34 -39.4,10.2 -59.32,14.86 -65.62,14.41 -132.02,25.11 -198.79,32.73 -2.29,0.3 -4.65,0.45 -6.98,0.74 0.44,0.99 0.85,1.99 1.14,2.97 2,7.28 3.74,14.58 5.39,21.88 17.21,76.13 16.31,151.95 14.37,188.64 l 237.36,-67.49 c 12.93,-84.34 10.43,-150.52 8.18,-179.95 z m -295.22,45.2 c -0.79,-2.72 -0.69,-5.55 0,-8.18 -24.85,2.63 -49.72,4.86 -74.57,6.89 27.87,58.45 33.96,120.69 35.31,142.63 21.44,15.21 42.73,33.48 58.39,47.69 1.42,-41.89 0.38,-117.91 -19.13,-189.03 z m -731.309,-8.02 c 0.668,2.52 0.719,5.3 0,8.02 -19.481,71.02 -20.52,147.04 -19.18,189.03 15.695,-14.21 36.945,-32.49 58.442,-47.69 1.296,-21.93 7.386,-84.03 35.257,-142.49 -24.863,-1.96 -49.711,-4.25 -74.519,-6.87 z m -35.852,-3.92 c -33.289,-4.06 -66.621,-8.26 -99.789,-13.76 -33.082,-5.65 -66.172,-11.68 -98.961,-18.96 -19.902,-4.62 -39.609,-9.52 -59.34,-14.86 -0.179,1.57 -0.421,3.96 -0.699,7.05 -2.289,24.47 -6.621,94.95 7.59,187.25 l 237.289,67.49 c -1.785,-35.32 -2.758,-106.88 12.488,-180.08 2.121,-10.15 4.536,-20.33 7.313,-30.45 0.301,-0.98 0.703,-1.98 1.14,-2.88 -2.39,-0.3 -4.671,-0.5 -7.031,-0.8 z m 1189.581,-95.83 c -2,0.97 -4,1.96 -5.92,2.9 -2.93,1.42 -6.19,3.03 -9.92,4.85 -0.22,0.1 -0.37,0.18 -0.37,0.18 -2.11,1.04 -4.19,2.23 -6.22,3.54 -21.97,10.14 -44.98,18 -67.97,25.54 -2.72,0.89 -5.39,1.69 -8.12,2.48 0.21,0.69 0.4,1.39 0.51,2.08 0.34,2.6 6.24,46.25 2.69,115.04 -1.52,29.39 -4.77,63.34 -10.92,100.68 -0.99,5.95 -5.34,10.79 -11.08,12.44 l -33.82,9.56 c -7.29,261.79 -115.06,384.8 -118.44,388.61 96.29,-154.97 95.45,-338.75 93.77,-381.58 l -209.75,59.62 c -0.15,0 -0.29,0 -0.49,0.1 -0.85,0.2 -1.8,0.3 -2.69,0.4 -0.2,0 -0.44,0.04 -0.77,0.04 -1.09,0.05 -2.29,-0.04 -3.43,-0.3 -0.16,0 -0.34,-0.15 -0.56,-0.15 -0.93,-0.2 -1.78,-0.5 -2.71,-0.94 -0.33,-0.15 -0.63,-0.35 -0.94,-0.45 -0.69,-0.48 -1.39,-0.88 -2.08,-1.38 -0.15,-0.1 -0.35,-0.2 -0.5,-0.34 -0.2,-0.15 -0.29,-0.3 -0.4,-0.4 -0.2,-0.2 -0.44,-0.35 -0.6,-0.5 -0.2,-0.21 -5.84,-5.74 -14.61,-14.02 0.61,19.62 0.76,49.64 -1.47,86.3 -0.21,3.48 -0.44,7.01 -0.68,10.58 -6.59,92.1 -28.36,221.47 -93.42,334.72 0.57,-1.63 6.99,-20.42 15.31,-52.07 20.94,-79.63 53.9,-240.78 35.93,-415.65 -0.08,-0.8 -0.14,-1.6 -0.22,-2.41 -0.27,-0.22 -0.57,-0.43 -0.85,-0.65 -8.2,-6.5 -16.57,-12.86 -24.86,-18.46 -4.15,-2.88 -6.74,-7.57 -6.83,-12.62 0,-0.8 -1.85,-78.98 -36.36,-145.55 -0.61,-1.09 -0.93,-2.19 -1.28,-3.32 -85.88,5.89 -172,8.41 -258.03,8.47 -85.97,-0.05 -172.15,-2.43 -258.082,-8.27 -0.336,1.04 -0.688,2.13 -1.188,3.12 -34.558,66.57 -36.34,144.75 -36.39,145.55 -0.09,5.05 -2.629,9.75 -6.782,12.62 -8.57,5.8 -17.386,12.38 -25.82,19.12 -17.445,166.36 11.352,320.52 32.312,404.4 9.95,39.82 18.161,63.89 18.813,65.73 -94.402,-164.27 -97.672,-362.47 -95.582,-431.6 -8.934,8.28 -14.457,13.81 -14.609,14.02 -0.164,0.15 -0.45,0.3 -0.653,0.5 -0.101,0.1 -0.199,0.25 -0.34,0.4 -0.16,0.15 -0.351,0.24 -0.546,0.34 -0.696,0.5 -1.403,0.9 -2.09,1.28 -0.34,0.2 -0.59,0.4 -0.993,0.55 -0.902,0.44 -1.667,0.74 -2.574,0.84 -0.246,0.1 -0.437,0.25 -0.593,0.25 -1.192,0.25 -2.383,0.35 -3.481,0.3 -0.293,0 -0.602,-0.04 -0.891,-0.04 -0.851,-0.1 -1.683,-0.2 -2.574,-0.4 -0.199,-0.1 -0.297,-0.1 -0.496,-0.1 l -209.683,-59.62 c -1.688,42.84 -2.586,226.62 93.691,381.58 -3.367,-3.81 -111.125,-126.83 -118.473,-388.61 l -33.664,-9.56 c -5.894,-1.65 -10.211,-6.48 -11.183,-12.44 -6.149,-37.29 -9.379,-71.2 -10.918,-100.56 -3.559,-68.87 2.347,-112.56 2.73,-115.16 0.16,-0.69 0.352,-1.34 0.457,-2.04 -2.687,-0.83 -5.445,-1.63 -8.129,-2.47 -23.019,-7.54 -46.117,-15.44 -68.097,-25.62 -2.024,-1.3 -4.094,-2.48 -6.204,-3.51 0,0 -0.136,-0.07 -0.335,-0.18 -3.743,-1.82 -7.004,-3.43 -9.934,-4.85 -1.668,-0.82 -3.426,-1.67 -5.16,-2.52 -1.09,-0.62 -2.207,-1.18 -3.278,-1.81 15.559,6.1 31.649,10.56 47.731,14.52 16.148,4.01 32.398,7.58 48.629,10.65 32.648,6.08 65.379,11.34 98.308,15.35 32.844,4.31 65.821,7.87 98.848,10.64 33.055,2.82 66.031,5.6 99.152,7.52 132.43,7.83 265.201,10.3 398.031,10.35 132.86,-0.1 265.63,-2.17 398.03,-10.3 33.13,-1.93 66.11,-4.69 99.19,-7.48 33.1,-2.82 65.97,-6.43 98.8,-10.74 32.95,-3.96 65.73,-9.21 98.31,-15.31 16.3,-3.12 32.5,-6.58 48.58,-10.69 16.2,-3.96 32.2,-8.42 47.8,-14.52 -0.82,0.49 -1.71,0.94 -2.57,1.43"
         style="fill:#131211;fill-opacity:1;fill-rule:nonzero;stroke:none"
         id="path3321" /><path
         d="m 458.008,1369.65 0,0 c 1.734,0.84 3.492,1.7 5.16,2.52 -1.867,-0.9 -3.625,-1.76 -5.16,-2.52"
         style="fill:#131211;fill-opacity:1;fill-rule:nonzero;stroke:none"
         id="path3323" /><path
         d="m 473.438,1377.2 c -0.118,-0.06 -0.208,-0.11 -0.336,-0.18 0.199,0.1 0.336,0.18 0.336,0.18"
         style="fill:#131211;fill-opacity:1;fill-rule:nonzero;stroke:none"
         id="path3325" /><path
         d="m 473.102,1377.02 c -1.164,-0.56 -5.204,-2.53 -9.934,-4.85 2.922,1.42 6.191,3.04 9.934,4.85"
         style="fill:#131211;fill-opacity:1;fill-rule:nonzero;stroke:none"
         id="path3327" /><path
         d="m 2033.53,1369.28 0,0 c -1.78,0.86 -3.72,1.83 -5.92,2.9 1.91,-0.94 3.91,-1.93 5.92,-2.9"
         style="fill:#131211;fill-opacity:1;fill-rule:nonzero;stroke:none"
         id="path3329" /><path
         d="m 2027.61,1372.17 c -4.75,2.32 -8.78,4.29 -9.92,4.85 3.73,-1.81 6.99,-3.43 9.92,-4.85"
         style="fill:#131211;fill-opacity:1;fill-rule:nonzero;stroke:none"
         id="path3331" /><path
         d="m 2017.69,1377.02 c -0.14,0.06 -0.23,0.11 -0.37,0.18 -0.01,0 0.14,-0.08 0.37,-0.18"
         style="fill:#131211;fill-opacity:1;fill-rule:nonzero;stroke:none"
         id="path3333" /><path
         d="m 1282.57,1977.54 0,-349.59 47.44,0 0,-64.88 -160.4,0 0,64.88 47.43,0 0,349.59 -115.22,0 0,-57.5 -55.71,0 0,113.21 407.43,0 0,-113.21 -55.71,0 0,57.5 -115.26,0 z m 212.92,-99.34 0,196.95 -491.23,0 0,-196.95 139.5,0 0,57.49 31.34,0 0,-265.79 -47.33,0 0,-148.63 244.15,0 0,148.63 -47.49,0 0,265.79 31.46,0 0,-57.49 139.6,0"
         style="fill:#131211;fill-opacity:1;fill-rule:nonzero;stroke:none"
         id="path3335" /><path
         d="m 1302.9,310.59 0,0.019 c -0.06,0.039 -0.11,0.082 -0.18,0.141 0.07,-0.059 0.12,-0.102 0.18,-0.16"
         style="fill:#131211;fill-opacity:1;fill-rule:nonzero;stroke:none"
         id="path3337" /><path
         d="m 1292.88,317.719 c 0,0 4.12,-3.11 10.97,-8.297 l -1.12,1.328 1.85,2.551 c -3.49,2.719 -7.04,5.32 -10.62,7.859 l -0.2,0.199 c -0.04,0 -0.04,0 -0.04,0.102 -2.28,-2.441 -4.51,-4.961 -6.7,-7.32 l 1.8,-1.7 c 2.58,3.399 4.06,5.278 4.06,5.278"
         style="fill:#131211;fill-opacity:1;fill-rule:nonzero;stroke:none"
         id="path3339" /><path
         d="m 1302.9,310.609 -0.12,0.141 1.79,2.551 -1.85,-2.551 c 0.07,-0.059 0.12,-0.102 0.18,-0.141"
         style="fill:#131211;fill-opacity:1;fill-rule:nonzero;stroke:none"
         id="path3341" /><path
         d="m 2261.46,1343.18 c -4.25,-31.19 -9.99,-62.1 -18.41,-92.02 -4.16,-14.95 -8.87,-29.76 -14.32,-43.97 -2.76,-7.23 -5.74,-14.26 -8.88,-21.05 -1.56,-3.42 -3.15,-6.79 -4.84,-10 l -1.88,-3.76 c -2.36,-1.19 -4.75,-2.42 -7.03,-3.47 l -13.96,-6.69 c -4.9,-2.28 -9.89,-4.41 -14.91,-6.63 l 24.72,93.79 c -5.73,1.53 -59.73,15.55 -152.52,32.73 2.91,0.59 5.79,1.28 8.6,1.93 19.28,4.77 38.23,10.65 56.65,18.08 9.12,3.92 18.24,8.07 26.77,12.97 8.5,4.91 16.97,10.45 23.46,17.89 -92.91,-30.41 -284.96,-16.64 -455.77,0.99 -156.04,16.14 -312.64,26.54 -469.99,26.94 -157.31,-0.4 -313.728,-10.8 -469.931,-26.94 -170.739,-17.63 -362.797,-31.39 -455.719,-0.99 6.539,-7.43 14.961,-12.98 23.543,-17.89 8.559,-4.9 17.566,-9.05 26.687,-12.97 18.387,-7.43 37.454,-13.32 56.661,-18.08 6.789,-1.64 13.711,-3.12 20.547,-4.36 -84.637,-16.14 -133.715,-28.83 -139.208,-30.31 l 25.848,-98.46 c -0.398,-0.4 -0.898,-0.89 -1.449,-1.34 -8.848,3.97 -19.559,9.08 -27.379,12.64 l -13.961,6.69 c -2.223,1.04 -4.648,2.28 -6.98,3.47 l -1.957,3.76 c -1.653,3.21 -3.231,6.58 -4.774,10 -3.117,6.79 -6.137,13.82 -8.808,21.05 -5.524,14.21 -10.168,29.02 -14.399,43.97 -8.433,29.92 -14.133,60.83 -18.453,92.02 -3.957,31.05 -6.078,62.45 -5.789,93.8 0.16,15.7 0.691,31.35 2.141,46.95 0.601,7.83 1.492,15.5 2.359,23.23 0.687,5.45 1.539,11.2 2.441,16.49 20.785,17.49 44.332,32.98 68.879,47.14 26.563,15.51 54.391,29.38 82.762,42.29 28.258,13.32 57.199,25.41 86.269,37.14 14.61,5.84 29.27,11.59 43.93,17.09 14.758,5.63 29.567,11.04 44.481,16.44 -31.211,-5.16 -62.121,-12.29 -92.758,-20.16 -19.856,-5.1 -39.735,-10.89 -59.383,-17.08 140.012,366.2 474.906,604.66 840.68,604.66 365.73,0 700.66,-238.46 840.76,-604.63 -19.65,6.19 -39.56,11.98 -59.47,17.08 -30.61,7.87 -61.49,15 -92.71,20.16 14.85,-5.4 29.72,-10.81 44.38,-16.44 14.76,-5.5 29.41,-11.25 43.97,-17.09 29.1,-11.74 58.09,-23.83 86.26,-37.14 28.42,-12.92 56.26,-26.79 82.84,-42.29 24.53,-14.17 48.12,-29.65 68.86,-47.14 0.91,-5.3 1.82,-11.04 2.47,-16.49 0.94,-7.72 1.79,-15.4 2.42,-23.23 1.35,-15.61 1.94,-31.25 2.1,-46.95 0.32,-31.37 -1.82,-62.77 -5.85,-93.82 z m -147.28,-256.29 c -70.41,15.51 -225.03,46.01 -435.51,66.52 68.74,29.32 138.77,66.06 202.75,112.07 125.24,-17.73 217.27,-36.69 267.19,-47.98 l -34.43,-130.61 z m 54.43,-128.312 c 5.9,-4.789 10.54,-17.367 5.24,-75.828 -6.38,-71.602 -36.5,-197.25 -55.12,-217.449 -20.55,-4.012 -63.68,0.738 -89.93,6.828 4.45,18.031 5.79,26.75 9.4,45.16 l 46.02,32.211 c 3.65,2.57 6.08,6.531 6.74,10.891 l 32.13,225.129 c 19.52,-10.602 39.59,-21.95 45.52,-26.942 z m -296.1,-318.098 -489.04,55.622 -73.65,242.418 c -1.75,5.941 -6.74,10.3 -12.82,11.289 -18.12,2.929 -34.12,4.371 -47.44,4.371 -13.53,0 -29.42,-1.442 -47.64,-4.371 -6.06,-0.989 -11.02,-5.348 -12.85,-11.289 L 1117.32,701.969 630.938,593.789 438.148,728.809 400.16,1036.14 c 8.32,4.64 16.692,9.31 25.153,14.01 11.996,2.52 25.417,5.26 40.328,8.13 l 35.687,-289.999 c 0.59,-4.492 3.024,-8.621 6.801,-11.172 L 640.762,664.23 c 2.668,-1.929 5.937,-2.921 9.14,-2.921 1.188,0 2.286,0.152 3.528,0.39 l 399.91,88.961 c 1.44,0.34 2.76,0.77 3.96,1.469 3.78,1.992 6.63,5.41 7.88,9.512 l 72.11,237.109 c 19.21,4.96 68.74,16.6 112.28,16.6 43.33,0 92.86,-11.64 112.12,-16.6 l 72.06,-237.109 c 1.83,-6.082 7.17,-10.551 13.56,-11.231 l 399.96,-45.48 c 3.81,-0.45 7.81,0.59 10.89,2.832 l 132.71,92.738 c 3.58,2.59 6,6.609 6.64,10.961 l 35.36,247.759 c 26.65,-5.04 48.88,-9.76 66.33,-13.52 L 2060,771.891 1872.51,640.48 z m 112.23,11.86 c -4.54,-14.512 -9.3,-28.59 -14.14,-42.43 -19.31,-55.09 -41.04,-105.07 -64.66,-150.23 -6.49,-0.379 -13.43,-0.692 -20.75,-0.692 -22.83,0 -46.15,1.992 -71.91,4.352 -44.77,4.07 -115.78,12.199 -138.17,14.781 -19.36,15.449 -85.48,67.949 -140.44,111.289 -2.14,1.668 -3.96,3.309 -5.85,4.809 -9.67,8.222 -20.65,17.5 -42.99,17.5 -20.24,0 -49.82,-7.367 -121.34,-28.989 37.14,27.77 37.44,63.661 37.44,63.661 0,0 -52.98,-49.231 -138.37,-60.2 -85.33,-10.953 -152.32,41.45 -152.32,41.45 2.81,-9.121 6.79,-29.731 26.14,-47.231 -22.78,2.649 -47.33,4.531 -73.01,4.531 -9.35,0 -18.76,-0.293 -27.82,-0.742 -52.491,-2.711 -126.398,-82.09 -178.28,-162.09 -25.473,-8.05 -105.2,-33.379 -197.297,-60.519 -54.41,75.34 -91.325,151.691 -112.203,200.89 -12.168,28.629 -18.903,48.11 -20.442,52.731 l 0,0.098 c -1.68,4.781 -3.519,9.691 -5.058,14.671 l 22.089,-15.41 0,-0.148 54.68,-38.301 18.231,-12.723 c 2.761,-1.918 6.043,-2.918 9.269,-2.918 1.121,0 2.309,0.168 3.512,0.36 l 468.119,104.269 34.3,7.661 c 5.65,1.242 10.16,5.441 11.85,10.941 l 71.65,235.879 c 12.34,1.621 23.23,2.48 32.6,2.48 9.14,0 20.16,-0.859 32.48,-2.48 l 73.75,-242.871 c 1.87,-6.25 7.23,-10.641 13.56,-11.391 l 27.35,-3.09 6.96,-0.777 471.33,-53.57 c 3.86,-0.461 7.81,0.597 10.98,2.82 l 47.39,33.168 43.74,30.641 16.25,11.39 c -2.69,-11.301 -5.61,-22.5 -8.62,-33.57 z m -0.61,-223.75 c 1.43,0.719 2.96,1.519 4.45,2.289 15.63,8.051 36.07,17.812 55.76,26.82 -1.06,-2.027 -2.18,-4.16 -3.29,-6.269 -2.09,-3.95 -4.19,-8.02 -6.39,-12.18 -13.61,-26.012 -28.9,-55.391 -43.62,-84.02 -10.58,-20.601 -20.87,-40.82 -30,-59.039 C 1928.06,230 1865.68,215.48 1820.09,205 c -7.9,-1.828 -15.43,-3.559 -22.21,-5.5 -4.31,-1.199 -9.13,-2.5 -14.45,-3.91 -37.29,-9.84 -98.09,-24.399 -152.62,-37.442 -17.23,-4.097 -34.02,-8.168 -49.53,-11.918 -16.72,-3.992 -33.27,-6.058 -49.02,-6.058 -46.14,0 -86.31,16.68 -119.63,49.687 -43.78,43.442 -80.64,86.219 -89.44,96.571 -1.27,1.48 -1.93,2.3 -1.98,2.34 l -17.36,20.66 c -6.85,5.199 -10.97,8.3 -10.97,8.3 0,0 -1.48,-1.89 -4.06,-5.289 l -1.8,1.7 2.96,-2.821 c 0.01,0.02 0.02,0.02 0.03,0.02 l -0.02,-0.02 0.02,-0.011 -11.14,-29.86 c -0.24,-0.668 -6.69,-17.59 -38.39,-88.539 -12.56,-28.14 -38.22,-47.172 -64.32,-59.82 -37.86,-18.461 -76.59,-23.461 -77.18,-23.52 -1.78,-0.211 -3.45,-0.449 -5.09,-0.66 -4.16,-0.609 -8.01,-1.301 -12.53,-2.109 -18.01,-3.11 -50.91,-8.9299 -174.739,-23.051 -4,-0.4687 -8.09,-0.9414 -12.289,-1.4102 -18.023,-2.0898 -35.555,-3.0507 -52.043,-3.0507 0,0 -0.008,0 -0.019,0 0,0 -0.008,0 -0.028,0 -131.679,0 -200.383,64.8519 -254.902,135.0119 -6.57,8.461 -13.352,17.469 -20.199,26.699 -15.168,20.43 -30.633,42.211 -45.301,63.359 -10.152,14.571 -19.922,28.852 -28.844,42 0.047,-0.019 0.086,-0.019 0.113,-0.039 3.743,-1.73 7.512,-3.429 11.262,-5.172 47.137,-21.66 92.949,-42.949 93.77,-43.218 l 8.422,-3.891 8.808,2.5 c 136.547,39.039 265.297,80.59 266.539,81 l 8.621,2.75 4.789,7.641 c 74.84,118.32 133.32,146.09 143.73,146.64 8.27,0.41 16.77,0.602 25.29,0.602 104.04,0 190.87,-32.192 191.77,-32.422 l 8.03,-3.051 8.12,2.602 c 132.31,41 192.73,59.769 213.54,59.769 4.07,0 4.07,0 10.91,-5.84 2.16,-1.73 4.55,-3.769 7.18,-5.91 64.81,-50.949 144.95,-114.871 145.79,-115.422 l 5.55,-4.468 6.98,-0.75 c 0.95,-0.149 92.47,-10.93 146.54,-15.871 27.08,-2.45 51.5,-4.539 76.42,-4.539 41.86,-0.04 74.25,6.332 98.96,19.32 z M 1281.73,37.5898 c -63.34,-4.25 -127.63,3.2305 -190.57,20.4493 5.31,1 9.11,1.6406 13.76,2.1914 5.21,0.6484 118.12,15.3906 168.93,91.0195 l 4.82,-0.102 12.52,0.102 c 8.43,0 16.1,0.699 24.16,1.051 19.23,1.621 37.99,4.398 56.46,8.109 1.99,-1.98 3.88,-3.93 5.86,-5.941 38.22,-37.828 85.57,-59.5276 137.68,-63.3401 -87.59,-35.5078 -170.08,-49.2773 -233.62,-53.5391 z m 69.18,144.1602 c -12.36,-1.77 -24.65,-3.352 -36.83,-4.32 -7.93,-0.379 -16.25,-1.25 -23.83,-1.25 l -2.83,0 c 9.51,21.211 16.75,37.679 22.19,50.16 11.21,-12.481 25.32,-27.91 41.3,-44.59 z M 382.813,630.141 c -7.391,7.468 -17.27,32.078 -27.043,63.39 l 0,0 c -15.207,48.77 -30.09,113.86 -34.809,156.207 -6.231,56.34 -1.84,68.481 3.926,73.231 6.633,5.551 31.535,19.761 53.093,31.25 l 29.122,-236.481 c 0.597,-4.547 2.976,-8.558 6.726,-11.226 l 59.723,-41.801 c 0.969,-3.402 2.019,-6.762 3.019,-10.16 1.379,-4.723 2.711,-9.442 4.16,-14.121 -24.71,-7.282 -75.128,-14.262 -97.917,-10.289 z m 806.457,639.739 c -125.34,-38.57 -233.629,-87.25 -312.598,-127.4 -8.531,-4.33 -16.813,-8.58 -24.621,-12.7 89.609,85.68 184.789,133.71 195.739,139.01 0.52,0.35 0.92,0.54 0.97,0.6 l 72.56,34.37 c 39.32,0.74 78.6,1.19 117.81,1.29 l 0.06,0 c 6.84,-0.03 13.68,-0.16 20.53,-0.21 19.9,-0.13 39.8,-0.26 59.71,-0.59 -44.98,-9.85 -88.57,-21.59 -130.16,-34.37 z m 284.57,2.08 c -22.33,-28.27 -53.4,-64.42 -90.13,-99.79 -42.79,1.24 -86.72,2.03 -131.94,2.03 -74.74,0 -146.35,-1.97 -214.44,-5.24 96.13,39.91 211.67,78.78 336.77,102.22 36.5,6.93 73.89,12.48 111.83,16.29 -3.66,-4.81 -7.74,-10.06 -12.09,-15.51 z M 1370.63,1101.9 c 1.04,0.88 2.06,1.77 3.12,2.65 71.39,59.85 127.09,129.5 155.36,167.71 8.92,12.24 15.15,21.25 18.21,25.81 52.71,-2.23 105.39,-4.76 158.1,-7.73 14.39,-0.81 28.75,-1.73 43.11,-2.66 23.51,-1.52 47.02,-3.13 70.56,-4.92 0.15,0 0.24,-0.05 0.34,-0.1 -3.87,-2.67 -7.63,-5.59 -11.6,-8.31 -154.92,-108.11 -333.99,-153.92 -437.2,-172.45 z m -82.61,-55.2 c 7.97,0.53 140.15,16.73 298.05,71.15 174.86,-13.41 317.64,-34.87 415.21,-52.69 l -34.57,-242.269 -121.93,-85.371 -383.32,43.558 -71.56,235.542 c -1.63,5.25 -5.69,9.28 -10.96,10.8 -2.35,0.75 -49.81,14.28 -100.12,18.62 l 9.2,0.66 z m -724.832,73.04 c 106.46,48.97 228.003,93.99 360.031,124.69 C 889,1220.31 850.23,1189.56 812.59,1152.22 716.371,1142.6 632.473,1130.93 563.188,1119.74 z m 204.82,-15.95 c -11.824,-14.07 -23.305,-28.92 -34.168,-44.63 l -65.652,-94.242 95.621,63.792 c 1.441,0.99 62.351,41.05 161.89,89.72 99.301,7.48 208.841,12.35 326.061,12.35 28.61,0 56.55,-0.41 84.19,-0.84 -19.27,-15.61 -39.57,-30.22 -60.71,-43 l -70.42,-42.59 c -44.29,-5.35 -82.71,-16.35 -84.89,-16.94 -1.35,-0.28 -2.51,-0.83 -3.65,-1.57 -3.43,-2 -6.04,-5.32 -7.24,-9.22 L 1037.13,779.941 653.32,694.629 532.379,779.301 497.262,1064.22 c 68.597,12.62 160.508,27.24 270.746,39.57 z m -412.981,113.7 c 20.356,4.61 47.856,10.5 81.575,16.98 -20.696,-14.11 -45.211,-31.79 -72,-53.13 l -9.575,36.15 z M 204.828,964.57 c 2.289,2.758 4.664,5.489 7.012,8.231 132.828,155.069 320.82,273.109 370.461,302.829 5.488,0.7 10.887,1.3 16.398,1.84 19.211,2.08 38.531,3.67 57.883,5.09 38.789,2.98 77.512,5.66 116.449,7.78 33.539,1.89 67.09,3.61 100.66,5.17 33.539,1.55 67.051,2.94 100.547,4.15 -46.75,-9.07 -92.406,-19.91 -136.679,-32.34 C 559.41,1189.51 334.133,1054.45 204.828,964.57 z m 2107.752,473.8 c -0.8,16.84 -2.47,33.67 -4.85,50.32 -1.08,8.42 -2.38,16.84 -4.12,25.1 -1.62,8.53 -3.3,16.46 -5.99,25.71 l -1.77,6.54 -4.67,3.67 c -26.54,20.84 -55.18,36.6 -84.24,50.52 -24.01,11.34 -48.39,21.2 -73.05,30.3 -68.75,190.78 -186.91,359.94 -342.28,477.81 -160.59,121.82 -349.47,186.31 -546.18,186.31 -196.72,0 -385.602,-64.49 -546.2,-186.32 -155.359,-117.87 -273.542,-287.03 -342.273,-477.86 -24.598,-9.06 -49.019,-18.96 -72.988,-30.25 -29.121,-13.92 -57.739,-29.67 -84.289,-50.52 l -4.668,-3.67 -1.793,-6.54 c -2.571,-9.25 -4.25,-17.18 -5.989,-25.71 -1.667,-8.26 -2.917,-16.68 -4.109,-25.1 -2.379,-16.65 -3.961,-33.48 -4.84,-50.32 -1.687,-33.72 -0.742,-67.5 2.957,-101.03 3.571,-33.48 9.813,-66.66 18.711,-99.55 4.668,-16.34 9.973,-32.49 16.262,-48.53 3.121,-8.03 6.527,-15.99 10.309,-23.96 1.859,-3.97 3.902,-7.84 5.98,-11.89 l 3.32,-5.89 c 1.289,-2.18 2.129,-3.77 4.067,-6.64 l 3.355,-5.3 5.367,-2.72 c 5.684,-2.91 10.391,-5.15 15.532,-7.59 l 15.007,-6.73 c 2.782,-1.13 5.391,-2.26 8.231,-3.42 C 219.188,1052.07 145.133,970.172 80.9922,868.941 L 0,741.191 113.711,840.969 c 1.93,1.691 97.269,84.23 256.277,177.741 l 2.235,-18.28 c -10.403,-5.41 -60.403,-31.641 -75.266,-44.09 -24.629,-20.442 -25.82,-52.18 -19.227,-111.41 3.379,-30.36 14.758,-89.289 30.114,-143.309 26.449,-92.973 45.828,-109.422 62.844,-113.262 7.679,-1.847 17.593,-2.699 28.73,-2.699 30.461,0 69.473,5.942 94.934,13.61 29.859,-92.848 72.156,-176.68 123.718,-250.239 -2.488,-0.672 -4.949,-1.472 -7.441,-2.191 -31.012,14.39 -139.445,64.621 -175.906,81.012 l -76.164,34.277 45.05,-70.34 c 3.282,-5.07 81.039,-126.32 144.532,-208.059 59.379,-76.21 140.687,-154.2183 294.121,-154.2183 18.468,0 37.789,1.1875 57.699,3.3789 45.746,5.25 80.129,9.3789 106.269,12.7305 161.06,-59.1797 338.65,-62.8125 507.19,1.0391 46.12,17.5195 88.15,38.7695 126.73,62.5898 0.8,0.109 1.54,0.301 2.29,0.5 62.7,15.121 133.77,32.051 168.88,41.91 5.64,1.52 12.68,3.199 20.01,4.942 48.93,11.25 130.68,30.207 174.28,117.429 43.93,88 115.57,222.797 116.32,224.188 l 33.5,62.89 -65.28,-28.379 c -3.48,-1.582 -86.18,-37.601 -129.16,-60.121 -1.53,-0.859 -3.26,-1.597 -5.01,-2.418 34.87,71.149 52.46,128.047 58.59,149.879 24.06,-5.781 59.72,-5.031 85.96,-5.031 12.9,0 26.17,2.231 34.78,4.441 17.05,4.329 30.22,15.649 54.99,111.579 14.41,55.761 24.75,116.48 27.58,147.691 5.49,60.75 3.71,93.301 -21.09,113.84 -12.34,10.21 -48.58,29.72 -67.02,39.33 l 0.9,6.64 c 9.41,-2.24 14.46,-3.52 14.86,-3.62 l 16.74,63.46 c 5.89,2.51 12.13,5.03 19.21,7.77 10.1,4.01 20.21,8.01 30.32,12.37 l 14.93,6.73 c 5.21,2.44 9.87,4.67 15.57,7.59 l 5.33,2.72 3.38,5.3 c 1.89,2.87 2.89,4.46 4.06,6.64 l 3.27,5.89 c 2.24,4.05 4.2,7.92 6.04,11.89 3.78,7.97 7.14,15.94 10.31,23.96 6.28,16.04 11.58,32.19 16.24,48.53 8.87,32.89 15.21,66.06 18.73,99.55 3.76,33.53 4.6,67.31 2.92,101.03"
         style="fill:#131211;fill-opacity:1;fill-rule:nonzero;stroke:none"
         id="path3343" /></g></g></svg>